<mxfile host="app.diagrams.net" agent="Mozilla/5.0 (X11; Linux x86_64; rv:133.0) Gecko/20100101 Firefox/133.0" version="26.1.1">
  <diagram id="f106602c-feb2-e66a-4537-3a34d633f6aa" name="Page-1">
    <mxGraphModel dx="2087" dy="87" grid="0" gridSize="10" guides="1" tooltips="1" connect="0" arrows="0" fold="1" page="0" pageScale="1" pageWidth="1169" pageHeight="827" background="none" math="0" shadow="0">
      <root>
        <mxCell id="0" />
        <mxCell id="1" parent="0" />
        <mxCell id="w5ZOCgXdWMlHR6tc9iUt-585" value="" style="aspect=fixed;sketch=0;html=1;dashed=0;whitespace=wrap;verticalLabelPosition=bottom;verticalAlign=top;fillColor=#2875E2;strokeColor=#ffffff;points=[[0.005,0.63,0],[0.1,0.2,0],[0.9,0.2,0],[0.5,0,0],[0.995,0.63,0],[0.72,0.99,0],[0.5,1,0],[0.28,0.99,0]];shape=mxgraph.kubernetes.icon2;prIcon=api" parent="1" vertex="1">
          <mxGeometry x="320" y="1187.0032335329342" width="0.3373073610145394" height="0.32378916344088254" as="geometry" />
        </mxCell>
        <mxCell id="w5ZOCgXdWMlHR6tc9iUt-586" value="" style="rounded=1;whiteSpace=wrap;html=1;strokeColor=#7B838A;dashed=1;arcSize=7;" parent="1" vertex="1">
          <mxGeometry x="129.5" y="982" width="394.5" height="684" as="geometry" />
        </mxCell>
        <mxCell id="w5ZOCgXdWMlHR6tc9iUt-587" value="" style="group;fillColor=default;" parent="1" vertex="1" connectable="0">
          <mxGeometry x="283" y="964" width="100" height="30" as="geometry" />
        </mxCell>
        <mxCell id="w5ZOCgXdWMlHR6tc9iUt-588" value="Kubernetes" style="text;html=1;align=center;verticalAlign=middle;whiteSpace=wrap;rounded=0;fontFamily=Roboto;fontSource=https%3A%2F%2Ffonts.googleapis.com%2Fcss%3Ffamily%3DRoboto;horizontal=1;fontStyle=1;labelPosition=center;verticalLabelPosition=middle;fontColor=#7B838A;" parent="w5ZOCgXdWMlHR6tc9iUt-587" vertex="1">
          <mxGeometry x="34.54545454545455" width="65.45454545454545" height="30" as="geometry" />
        </mxCell>
        <mxCell id="w5ZOCgXdWMlHR6tc9iUt-589" value="" style="image;sketch=0;aspect=fixed;html=1;points=[];align=center;fontSize=12;image=img/lib/mscae/Kubernetes.svg;" parent="w5ZOCgXdWMlHR6tc9iUt-587" vertex="1">
          <mxGeometry y="1.1999999999999886" width="27.272727272727273" height="26.18181818181818" as="geometry" />
        </mxCell>
        <mxCell id="w5ZOCgXdWMlHR6tc9iUt-590" value="" style="rounded=1;whiteSpace=wrap;html=1;dashed=1;strokeColor=#1971c2;arcSize=7;" parent="1" vertex="1">
          <mxGeometry x="166" y="1023" width="329" height="488" as="geometry" />
        </mxCell>
        <mxCell id="w5ZOCgXdWMlHR6tc9iUt-594" value="" style="group;arcSize=7;" parent="1" vertex="1" connectable="0">
          <mxGeometry x="301.75" y="1062" width="70" height="80.5" as="geometry" />
        </mxCell>
        <mxCell id="w5ZOCgXdWMlHR6tc9iUt-595" value="" style="rounded=1;whiteSpace=wrap;html=1;strokeColor=#1971c2;" parent="w5ZOCgXdWMlHR6tc9iUt-594" vertex="1">
          <mxGeometry width="70" height="80.5" as="geometry" />
        </mxCell>
        <mxCell id="w5ZOCgXdWMlHR6tc9iUt-596" value="" style="sketch=0;html=1;aspect=fixed;strokeColor=none;shadow=0;fillColor=#1971c2;verticalAlign=middle;labelPosition=right;verticalLabelPosition=middle;shape=mxgraph.gcp2.website;align=left;spacingLeft=20;" parent="w5ZOCgXdWMlHR6tc9iUt-594" vertex="1">
          <mxGeometry x="22.557617554858894" y="15.882499999999936" width="27.443202614379082" height="26.62173202614379" as="geometry" />
        </mxCell>
        <mxCell id="w5ZOCgXdWMlHR6tc9iUt-597" value="&lt;font data-font-src=&quot;https://fonts.googleapis.com/css?family=Roboto&quot; face=&quot;Roboto&quot;&gt;&lt;b&gt;VUI-UI&lt;/b&gt;&lt;/font&gt;" style="text;html=1;align=center;verticalAlign=middle;whiteSpace=wrap;rounded=0;" parent="w5ZOCgXdWMlHR6tc9iUt-594" vertex="1">
          <mxGeometry x="5" y="44.5" width="60" height="30" as="geometry" />
        </mxCell>
        <mxCell id="w5ZOCgXdWMlHR6tc9iUt-598" value="" style="group" parent="1" vertex="1" connectable="0">
          <mxGeometry x="301.75" y="1170" width="70" height="80.5" as="geometry" />
        </mxCell>
        <mxCell id="w5ZOCgXdWMlHR6tc9iUt-599" value="" style="rounded=1;whiteSpace=wrap;html=1;strokeColor=#1971c2;arcSize=7;" parent="w5ZOCgXdWMlHR6tc9iUt-598" vertex="1">
          <mxGeometry width="70" height="80.5" as="geometry" />
        </mxCell>
        <mxCell id="w5ZOCgXdWMlHR6tc9iUt-600" value="&lt;div&gt;&lt;font face=&quot;Roboto&quot; data-font-src=&quot;https://fonts.googleapis.com/css?family=Roboto&quot;&gt;&lt;b&gt;VUI-CORE&lt;/b&gt;&lt;/font&gt;&lt;/div&gt;" style="text;html=1;align=center;verticalAlign=middle;whiteSpace=wrap;rounded=0;" parent="w5ZOCgXdWMlHR6tc9iUt-598" vertex="1">
          <mxGeometry x="5" y="45.5" width="60" height="30" as="geometry" />
        </mxCell>
        <mxCell id="w5ZOCgXdWMlHR6tc9iUt-601" value="" style="aspect=fixed;sketch=0;html=1;dashed=0;whitespace=wrap;verticalLabelPosition=middle;verticalAlign=middle;fillColor=#1971c2;strokeColor=#ffffff;points=[[0.005,0.63,0],[0.1,0.2,0],[0.9,0.2,0],[0.5,0,0],[0.995,0.63,0],[0.72,0.99,0],[0.5,1,0],[0.28,0.99,0]];shape=mxgraph.kubernetes.icon2;prIcon=api;spacingLeft=26;labelPosition=right;align=left;" parent="w5ZOCgXdWMlHR6tc9iUt-598" vertex="1">
          <mxGeometry x="17.5" y="11.740000000000009" width="35" height="32.76" as="geometry" />
        </mxCell>
        <mxCell id="w5ZOCgXdWMlHR6tc9iUt-647" value="" style="aspect=fixed;sketch=0;html=1;dashed=0;whitespace=wrap;verticalLabelPosition=bottom;verticalAlign=top;fillColor=#2875E2;strokeColor=#ffffff;points=[[0.005,0.63,0],[0.1,0.2,0],[0.9,0.2,0],[0.5,0,0],[0.995,0.63,0],[0.72,0.99,0],[0.5,1,0],[0.28,0.99,0]];shape=mxgraph.kubernetes.icon2;prIcon=api" parent="1" vertex="1">
          <mxGeometry x="850.17" y="927.8132335329343" width="0.3373073610145394" height="0.32378916344088254" as="geometry" />
        </mxCell>
        <mxCell id="w5ZOCgXdWMlHR6tc9iUt-648" value="" style="rounded=1;whiteSpace=wrap;html=1;strokeColor=#7B838A;dashed=1;arcSize=7;" parent="1" vertex="1">
          <mxGeometry x="659.67" y="909.43" width="380" height="361.45" as="geometry" />
        </mxCell>
        <mxCell id="w5ZOCgXdWMlHR6tc9iUt-649" value="" style="group;fillColor=default;" parent="1" vertex="1" connectable="0">
          <mxGeometry x="799" y="894.0000000000001" width="100" height="30" as="geometry" />
        </mxCell>
        <mxCell id="w5ZOCgXdWMlHR6tc9iUt-650" value="Kubernetes" style="text;html=1;align=center;verticalAlign=middle;whiteSpace=wrap;rounded=0;fontFamily=Roboto;fontSource=https%3A%2F%2Ffonts.googleapis.com%2Fcss%3Ffamily%3DRoboto;horizontal=1;fontStyle=1;labelPosition=center;verticalLabelPosition=middle;fontColor=#7B838A;" parent="w5ZOCgXdWMlHR6tc9iUt-649" vertex="1">
          <mxGeometry x="34.54545454545455" width="65.45454545454545" height="30" as="geometry" />
        </mxCell>
        <mxCell id="w5ZOCgXdWMlHR6tc9iUt-651" value="" style="image;sketch=0;aspect=fixed;html=1;points=[];align=center;fontSize=12;image=img/lib/mscae/Kubernetes.svg;" parent="w5ZOCgXdWMlHR6tc9iUt-649" vertex="1">
          <mxGeometry y="1.1999999999999886" width="27.272727272727273" height="26.18181818181818" as="geometry" />
        </mxCell>
        <mxCell id="w5ZOCgXdWMlHR6tc9iUt-652" value="" style="rounded=1;whiteSpace=wrap;html=1;dashed=1;strokeColor=#1971c2;arcSize=7;" parent="1" vertex="1">
          <mxGeometry x="696.17" y="956.43" width="203.5" height="274.45" as="geometry" />
        </mxCell>
        <mxCell id="w5ZOCgXdWMlHR6tc9iUt-656" value="" style="group" parent="1" vertex="1" connectable="0">
          <mxGeometry x="760.17" y="987.5" width="70" height="80.5" as="geometry" />
        </mxCell>
        <mxCell id="w5ZOCgXdWMlHR6tc9iUt-657" value="" style="rounded=1;whiteSpace=wrap;html=1;strokeColor=#1971c2;arcSize=7;" parent="w5ZOCgXdWMlHR6tc9iUt-656" vertex="1">
          <mxGeometry width="70" height="80.5" as="geometry" />
        </mxCell>
        <mxCell id="w5ZOCgXdWMlHR6tc9iUt-658" value="&lt;div&gt;&lt;font face=&quot;Roboto&quot; data-font-src=&quot;https://fonts.googleapis.com/css?family=Roboto&quot;&gt;&lt;b&gt;VUI-API&lt;/b&gt;&lt;/font&gt;&lt;/div&gt;" style="text;html=1;align=center;verticalAlign=middle;whiteSpace=wrap;rounded=0;" parent="w5ZOCgXdWMlHR6tc9iUt-656" vertex="1">
          <mxGeometry x="5" y="45.5" width="60" height="30" as="geometry" />
        </mxCell>
        <mxCell id="w5ZOCgXdWMlHR6tc9iUt-659" value="" style="aspect=fixed;sketch=0;html=1;dashed=0;whitespace=wrap;verticalLabelPosition=middle;verticalAlign=middle;fillColor=#1971c2;strokeColor=#ffffff;points=[[0.005,0.63,0],[0.1,0.2,0],[0.9,0.2,0],[0.5,0,0],[0.995,0.63,0],[0.72,0.99,0],[0.5,1,0],[0.28,0.99,0]];shape=mxgraph.kubernetes.icon2;prIcon=api;spacingLeft=26;labelPosition=right;align=left;" parent="w5ZOCgXdWMlHR6tc9iUt-656" vertex="1">
          <mxGeometry x="17.5" y="11.740000000000009" width="35" height="32.76" as="geometry" />
        </mxCell>
        <mxCell id="w5ZOCgXdWMlHR6tc9iUt-660" value="" style="group;imageHeight=24;arcSize=7;" parent="1" vertex="1" connectable="0">
          <mxGeometry x="735.17" y="1123" width="120" height="80.5" as="geometry" />
        </mxCell>
        <mxCell id="w5ZOCgXdWMlHR6tc9iUt-661" value="" style="rounded=1;whiteSpace=wrap;html=1;strokeColor=#1971c2;" parent="w5ZOCgXdWMlHR6tc9iUt-660" vertex="1">
          <mxGeometry width="120" height="80.5" as="geometry" />
        </mxCell>
        <mxCell id="w5ZOCgXdWMlHR6tc9iUt-662" value="&lt;div&gt;&lt;font data-font-src=&quot;https://fonts.googleapis.com/css?family=Roboto&quot; face=&quot;Roboto&quot;&gt;&lt;b&gt;VUI-WATCHDOG&lt;/b&gt;&lt;/font&gt;&lt;/div&gt;" style="text;html=1;align=center;verticalAlign=middle;whiteSpace=wrap;rounded=0;" parent="w5ZOCgXdWMlHR6tc9iUt-660" vertex="1">
          <mxGeometry x="8.57142857142857" y="42.5" width="102.85714285714288" height="30" as="geometry" />
        </mxCell>
        <mxCell id="w5ZOCgXdWMlHR6tc9iUt-663" value="" style="editableCssRules=.*;html=1;fontColor=#999999;shape=image;verticalLabelPosition=middle;verticalAlign=middle;labelPosition=right;align=left;spacingLeft=20;part=1;points=[];imageAspect=0;image=data:image/svg+xml,PHN2ZyB4bWxucz0iaHR0cDovL3d3dy53My5vcmcvMjAwMC9zdmciIHhtbG5zOnY9Imh0dHBzOi8vdmVjdGEuaW8vbmFubyIgd2lkdGg9IjE4LjMxOTk5OTY5NDgyNDIyIiBoZWlnaHQ9IjIwLjAwMDAwMTkwNzM0ODYzMyIgdmlld0JveD0iMCAwIDE4LjMxOTk5OTY5NDgyNDIyIDIwLjAwMDAwMTkwNzM0ODYzMyI+JiN4YTsJPHN0eWxlIHR5cGU9InRleHQvY3NzIj4uc3QwIHsgZmlsbDogcmdiKDEwMiwgMTU3LCAyNDYpOyB9IC5zdDEgeyBmaWxsOiByZ2IoNTAsIDEwOCwgMjI5KTsgfSAuc3QyIHsgZmlsbDogcmdiKDE3NCwgMjAzLCAyNTApOyB9IDwvc3R5bGU+JiN4YTsJPGRlZnM+JiN4YTsJCTxmaWx0ZXIgaWQ9IkEiIHg9IjQuNjQiIHk9IjQuMTkiIHdpZHRoPSIxNC43MyIgaGVpZ2h0PSIxMi43NiIgZmlsdGVyVW5pdHM9InVzZXJTcGFjZU9uVXNlIiBjb2xvci1pbnRlcnBvbGF0aW9uLWZpbHRlcnM9InNSR0IiPiYjeGE7CQkJPGZlRmxvb2QgZmxvb2QtY29sb3I9IiNmZmYiLz4mI3hhOwkJCTxmZUJsZW5kIGluPSJTb3VyY2VHcmFwaGljIi8+JiN4YTsJCTwvZmlsdGVyPiYjeGE7CQk8bWFzayBpZD0iQiIgeD0iNC42NCIgeT0iNC4xOSIgd2lkdGg9IjE0LjczIiBoZWlnaHQ9IjEyLjc2IiBtYXNrVW5pdHM9InVzZXJTcGFjZU9uVXNlIj4mI3hhOwkJCTxjaXJjbGUgY3g9IjEyIiBjeT0iMTIuMjMiIHI9IjMuNTgiIGZpbHRlcj0idXJsKCNBKSIvPiYjeGE7CQk8L21hc2s+JiN4YTsJPC9kZWZzPiYjeGE7CTxnIGNsYXNzPSJzdDAiPiYjeGE7CQk8Y2lyY2xlIGN4PSIxNi4xMyIgY3k9IjYuMjEiIHI9IjEuNzIiLz4mI3hhOwkJPGNpcmNsZSBjeD0iMi4xOSIgY3k9IjYuMjEiIHI9IjEuNzIiLz4mI3hhOwkJPGNpcmNsZSBjeD0iOS4xNiIgY3k9IjE4LjI4IiByPSIxLjcyIi8+JiN4YTsJPC9nPiYjeGE7CTxnIG1hc2s9InVybCgjQikiIHRyYW5zZm9ybT0idHJhbnNsYXRlKC0yLjg0IC0yKSI+JiN4YTsJCTxwYXRoIHRyYW5zZm9ybT0ibWF0cml4KC41IC0uODcgLjg3IC41IC00LjU5IDIwLjUzKSIgZD0iTTE0LjY5IDEwLjIyaDEuNTl2OC4wNGgtMS41OXoiIGNsYXNzPSJzdDEiLz4mI3hhOwkJPHBhdGggdHJhbnNmb3JtPSJyb3RhdGUoMzMwIDguNTIzIDE0LjI0NCkiIGQ9Ik00LjQ5IDEzLjQ1aDguMDR2MS41OUg0LjQ5eiIgY2xhc3M9InN0MSIvPiYjeGE7CQk8cGF0aCBkPSJNMTEuMiA0LjE5aDEuNTl2OC4wNEgxMS4yeiIgY2xhc3M9InN0MSIvPiYjeGE7CTwvZz4mI3hhOwk8ZyBjbGFzcz0ic3QyIj4mI3hhOwkJPGNpcmNsZSBjeD0iOS4xNiIgY3k9IjEwLjIzIiByPSIyLjc4Ii8+JiN4YTsJCTxjaXJjbGUgY3g9IjIuMTkiIGN5PSIxNC4yNSIgcj0iMi4xOSIvPiYjeGE7CQk8Y2lyY2xlIGN4PSIxNi4xMyIgY3k9IjE0LjI1IiByPSIyLjE5Ii8+JiN4YTsJCTxjaXJjbGUgY3g9IjkuMTYiIGN5PSIyLjE5IiByPSIyLjE5Ii8+JiN4YTsJPC9nPiYjeGE7PC9zdmc+;" parent="w5ZOCgXdWMlHR6tc9iUt-660" vertex="1">
          <mxGeometry x="46.5" y="12.5" width="27" height="30" as="geometry" />
        </mxCell>
        <mxCell id="w5ZOCgXdWMlHR6tc9iUt-664" value="" style="group;arcSize=7;" parent="1" vertex="1" connectable="0">
          <mxGeometry x="934.17" y="1049.9099999999999" width="70" height="80.5" as="geometry" />
        </mxCell>
        <mxCell id="w5ZOCgXdWMlHR6tc9iUt-665" value="" style="rounded=1;whiteSpace=wrap;html=1;strokeColor=#1971c2;" parent="w5ZOCgXdWMlHR6tc9iUt-664" vertex="1">
          <mxGeometry width="70" height="80.5" as="geometry" />
        </mxCell>
        <mxCell id="w5ZOCgXdWMlHR6tc9iUt-666" value="&lt;font data-font-src=&quot;https://fonts.googleapis.com/css?family=Roboto&quot; face=&quot;Roboto&quot;&gt;&lt;b&gt;VELERO&lt;/b&gt;&lt;/font&gt;" style="text;html=1;align=center;verticalAlign=middle;whiteSpace=wrap;rounded=0;" parent="w5ZOCgXdWMlHR6tc9iUt-664" vertex="1">
          <mxGeometry x="5" y="45.5" width="60" height="30" as="geometry" />
        </mxCell>
        <mxCell id="w5ZOCgXdWMlHR6tc9iUt-667" value="" style="shape=image;verticalLabelPosition=bottom;labelBackgroundColor=default;verticalAlign=top;aspect=fixed;imageAspect=0;image=data:image/png,iVBORw0KGgoAAAANSUhEUgAAACoAAAAwCAIAAADo7H/xAAAAA3NCSVQICAjb4U/gAAAFUElEQVRYR+1Xe2xTZRRfu+52rz7X7uXmGGzMPdgYSDZAQEY0m+hQNIaIMUPNFqIohsxoVHA+iZkvjMQwWJSIGqfBCRniFJwQYEwGo4ONQdn70ff7sdvb1rPd5fZre3fbbkv2z26a5n7f75zzO9853znfd1lutzts/h72/FFPMC/Qz2P85zn4nNks3ekOU1qdYxYiPjr8ntiZmApZR2d3NcrNf/RZFVbniJkAD8iHh7GzRBGLBRH5Uu62rNggV8UKvu5vafFGuQV+QMxsPU+CbcviBeNEsPTfXDfU/qdnZvVBwYmqZYKy9GgGraDod/6tau63MlhhgL7aKGXwIDD92p+GAkabgR4gBg8CFF7FacUsuYF+11nVqV764DHRg875YTvzyoJE97fpBoyEv/C09Hf0jppLWn+Fmc0Mm4mXzqj8daete1ZYmNo2VWDLJNjx8iRUOaO+nxreeT4tGKip13Ksy7Q9m4cK02+9bi1uJ9zL47mUKMr3aqFwV6EgVAjk1yRHHi1NCEz/9TXD5+2hVTlqlOG9doPk8SUxlAB97iFQDCZmA5lxF6pOk/seHf7RA3GHO41otaAJPthh+OyKJza/lSdBgyONMkAn5JbXWtQyNR4g+CfvWnb/oz5WltClxetkpgIpdnCTdNBEbGwYJjVJV178U/lEZuzm9OghM/Hgz15QfaeRxWLtyOWhUOszKXf1jr0XtKe2JlMe0Gy9ozdN702WXCqPU5wUyQ1nfd9l8gl4rgSDXnZFYa/+V+MDwaH3TrEIJnecVvpA0RzWUhH28bq4TGEECdHQH7iqP3DV4KM5h0M0jzS5fzKTB+v2WdbLywXPZvOEXPYtnWNL4yjqzfqUqJrVYlCB47+yWdWt82R3VSL3k3USEqo+p2kd9euhcN77PCfl5h+6TWbc+eEl7ZIjffAbNRMg83qLuqRhqGXQCu9QGihUJzPA8LDMgEJtY3YYopDSSpT+OozS0QS/30hs+mUY1rSvWJzGnwhPj87xyPERdMVUABkgkEebFQyhWZUtilkqmko8zNDQw+zW30eve1fIXOW++n5hVb6nY9K3naezvDozyf3GKlHDo4nlSM+ifIKdAeW0s8BjF4WgMexeIYSZmAh2Sar35cc385NjjY0YMDrI7MI/ZBom5Xr8x24TvCgsxFMnRkm0vnMi3yor8WW7Xmd34k4XtWPgBaDbOvz9i9pzQ1at3bn/8sQM+tAHHzz9a8C2Njly3OkmXG5JVPib5zUNPWZyTYceii9JjaLWt++iFo4ycvh2kagil09B394wftCqI4fvrhZni7GVCZ5jDOanpb+hwX0KjDI6s5cNKVFHHo730aXPPQjlxmGV+Z51wAx0wC0ZMVDE/vQrErgVOfycuKnOjwqAHYBgZm+x2F9x2tWTopXNyjODts3pMTVrxHyMDbmI4rA6VPgrZ1VwgQEZEhJgbJPDBQK39Q44C0gIvPl0gyRDEAEQbIs0vqfeKD8C0GvtLrPDdS+PA18Xe1rUoAbJq10vkUaHw90NXEnhcS6P2bc3KQACvreKRAVSLrQpOHJAq00xAe1ZKaQtClAJQA8ShnEXnALf3fQ6dcDifWJMY3PKDY46mRGNalU+P0eMEe4w+Co6JDNCzJ/LoSljUiUwPSnX1GuF0gIylIn5HS4BL+TxH1vsudv4ywdLD5pw4f+iXU+Vn78tambuv/Eo03K9o0M9fk2JXxix9Xlf3YsSIwsTuHlxWOkipu861O8QVu+/XDhhByf3PzyF8VyMDbfz0J5Z0YdGRSc9bduhE577uQX6uY9p0BYXgh90qOZecJ6D/z8Hltw4oe9yRgAAAABJRU5ErkJggg==;" parent="w5ZOCgXdWMlHR6tc9iUt-664" vertex="1">
          <mxGeometry x="15.93" y="11" width="34.13" height="39" as="geometry" />
        </mxCell>
        <mxCell id="w5ZOCgXdWMlHR6tc9iUt-692" value="" style="endArrow=classic;startArrow=classic;html=1;rounded=0;entryX=0.496;entryY=0;entryDx=0;entryDy=0;entryPerimeter=0;strokeColor=#1971c2;flowAnimation=1;exitX=0.5;exitY=0.998;exitDx=0;exitDy=0;exitPerimeter=0;flowAnimationDirection=alternate;" parent="1" source="w5ZOCgXdWMlHR6tc9iUt-657" target="w5ZOCgXdWMlHR6tc9iUt-661" edge="1">
          <mxGeometry width="50" height="50" relative="1" as="geometry">
            <mxPoint x="799.67" y="1070" as="sourcePoint" />
            <mxPoint x="560.67" y="1043.6" as="targetPoint" />
          </mxGeometry>
        </mxCell>
        <mxCell id="w5ZOCgXdWMlHR6tc9iUt-695" value="" style="aspect=fixed;sketch=0;html=1;dashed=0;whitespace=wrap;verticalLabelPosition=bottom;verticalAlign=top;fillColor=#2875E2;strokeColor=#ffffff;points=[[0.005,0.63,0],[0.1,0.2,0],[0.9,0.2,0],[0.5,0,0],[0.995,0.63,0],[0.72,0.99,0],[0.5,1,0],[0.28,0.99,0]];shape=mxgraph.kubernetes.icon2;prIcon=api" parent="1" vertex="1">
          <mxGeometry x="849.5" y="1376.8132335329342" width="0.3373073610145394" height="0.32378916344088254" as="geometry" />
        </mxCell>
        <mxCell id="w5ZOCgXdWMlHR6tc9iUt-696" value="" style="rounded=1;whiteSpace=wrap;html=1;strokeColor=#7B838A;dashed=1;arcSize=7;" parent="1" vertex="1">
          <mxGeometry x="659" y="1358.4299999999998" width="380" height="361.45" as="geometry" />
        </mxCell>
        <mxCell id="w5ZOCgXdWMlHR6tc9iUt-697" value="" style="group;fillColor=default;" parent="1" vertex="1" connectable="0">
          <mxGeometry x="800.34" y="1343.14" width="100" height="30" as="geometry" />
        </mxCell>
        <mxCell id="w5ZOCgXdWMlHR6tc9iUt-698" value="Kubernetes" style="text;html=1;align=center;verticalAlign=middle;whiteSpace=wrap;rounded=0;fontFamily=Roboto;fontSource=https%3A%2F%2Ffonts.googleapis.com%2Fcss%3Ffamily%3DRoboto;horizontal=1;fontStyle=1;labelPosition=center;verticalLabelPosition=middle;fontColor=#7B838A;" parent="w5ZOCgXdWMlHR6tc9iUt-697" vertex="1">
          <mxGeometry x="34.54545454545455" width="65.45454545454545" height="30" as="geometry" />
        </mxCell>
        <mxCell id="w5ZOCgXdWMlHR6tc9iUt-699" value="" style="image;sketch=0;aspect=fixed;html=1;points=[];align=center;fontSize=12;image=img/lib/mscae/Kubernetes.svg;" parent="w5ZOCgXdWMlHR6tc9iUt-697" vertex="1">
          <mxGeometry y="1.1999999999999886" width="27.272727272727273" height="26.18181818181818" as="geometry" />
        </mxCell>
        <mxCell id="w5ZOCgXdWMlHR6tc9iUt-700" value="" style="rounded=1;whiteSpace=wrap;html=1;dashed=1;strokeColor=#1971c2;arcSize=7;" parent="1" vertex="1">
          <mxGeometry x="695.5" y="1405.4299999999998" width="203.5" height="274.45" as="geometry" />
        </mxCell>
        <mxCell id="w5ZOCgXdWMlHR6tc9iUt-704" value="" style="group" parent="1" vertex="1" connectable="0">
          <mxGeometry x="759.5" y="1436.5" width="70" height="80.5" as="geometry" />
        </mxCell>
        <mxCell id="w5ZOCgXdWMlHR6tc9iUt-705" value="" style="rounded=1;whiteSpace=wrap;html=1;strokeColor=#1971c2;arcSize=7;" parent="w5ZOCgXdWMlHR6tc9iUt-704" vertex="1">
          <mxGeometry width="70" height="80.5" as="geometry" />
        </mxCell>
        <mxCell id="w5ZOCgXdWMlHR6tc9iUt-706" value="&lt;div&gt;&lt;font face=&quot;Roboto&quot; data-font-src=&quot;https://fonts.googleapis.com/css?family=Roboto&quot;&gt;&lt;b&gt;VUI-API&lt;/b&gt;&lt;/font&gt;&lt;/div&gt;" style="text;html=1;align=center;verticalAlign=middle;whiteSpace=wrap;rounded=0;" parent="w5ZOCgXdWMlHR6tc9iUt-704" vertex="1">
          <mxGeometry x="5" y="45.5" width="60" height="30" as="geometry" />
        </mxCell>
        <mxCell id="w5ZOCgXdWMlHR6tc9iUt-707" value="" style="aspect=fixed;sketch=0;html=1;dashed=0;whitespace=wrap;verticalLabelPosition=middle;verticalAlign=middle;fillColor=#1971c2;strokeColor=#ffffff;points=[[0.005,0.63,0],[0.1,0.2,0],[0.9,0.2,0],[0.5,0,0],[0.995,0.63,0],[0.72,0.99,0],[0.5,1,0],[0.28,0.99,0]];shape=mxgraph.kubernetes.icon2;prIcon=api;spacingLeft=26;labelPosition=right;align=left;" parent="w5ZOCgXdWMlHR6tc9iUt-704" vertex="1">
          <mxGeometry x="17.5" y="11.740000000000009" width="35" height="32.76" as="geometry" />
        </mxCell>
        <mxCell id="w5ZOCgXdWMlHR6tc9iUt-708" value="" style="group;imageHeight=24;arcSize=7;" parent="1" vertex="1" connectable="0">
          <mxGeometry x="734.5" y="1572" width="120" height="80.5" as="geometry" />
        </mxCell>
        <mxCell id="w5ZOCgXdWMlHR6tc9iUt-709" value="" style="rounded=1;whiteSpace=wrap;html=1;strokeColor=#1971c2;" parent="w5ZOCgXdWMlHR6tc9iUt-708" vertex="1">
          <mxGeometry width="120" height="80.5" as="geometry" />
        </mxCell>
        <mxCell id="w5ZOCgXdWMlHR6tc9iUt-710" value="&lt;div&gt;&lt;font data-font-src=&quot;https://fonts.googleapis.com/css?family=Roboto&quot; face=&quot;Roboto&quot;&gt;&lt;b&gt;VUI-WATCHDOG&lt;/b&gt;&lt;/font&gt;&lt;/div&gt;" style="text;html=1;align=center;verticalAlign=middle;whiteSpace=wrap;rounded=0;" parent="w5ZOCgXdWMlHR6tc9iUt-708" vertex="1">
          <mxGeometry x="8.57142857142857" y="42.5" width="102.85714285714288" height="30" as="geometry" />
        </mxCell>
        <mxCell id="w5ZOCgXdWMlHR6tc9iUt-711" value="" style="editableCssRules=.*;html=1;fontColor=#999999;shape=image;verticalLabelPosition=middle;verticalAlign=middle;labelPosition=right;align=left;spacingLeft=20;part=1;points=[];imageAspect=0;image=data:image/svg+xml,PHN2ZyB4bWxucz0iaHR0cDovL3d3dy53My5vcmcvMjAwMC9zdmciIHhtbG5zOnY9Imh0dHBzOi8vdmVjdGEuaW8vbmFubyIgd2lkdGg9IjE4LjMxOTk5OTY5NDgyNDIyIiBoZWlnaHQ9IjIwLjAwMDAwMTkwNzM0ODYzMyIgdmlld0JveD0iMCAwIDE4LjMxOTk5OTY5NDgyNDIyIDIwLjAwMDAwMTkwNzM0ODYzMyI+JiN4YTsJPHN0eWxlIHR5cGU9InRleHQvY3NzIj4uc3QwIHsgZmlsbDogcmdiKDEwMiwgMTU3LCAyNDYpOyB9IC5zdDEgeyBmaWxsOiByZ2IoMjUsIDExMywgMTk0KTsgfSAuc3QyIHsgZmlsbDogcmdiKDE3NCwgMjAzLCAyNTApOyB9IDwvc3R5bGU+JiN4YTsJPGRlZnM+JiN4YTsJCTxmaWx0ZXIgaWQ9IkEiIHg9IjQuNjQiIHk9IjQuMTkiIHdpZHRoPSIxNC43MyIgaGVpZ2h0PSIxMi43NiIgZmlsdGVyVW5pdHM9InVzZXJTcGFjZU9uVXNlIiBjb2xvci1pbnRlcnBvbGF0aW9uLWZpbHRlcnM9InNSR0IiPiYjeGE7CQkJPGZlRmxvb2QgZmxvb2QtY29sb3I9IiNmZmYiLz4mI3hhOwkJCTxmZUJsZW5kIGluPSJTb3VyY2VHcmFwaGljIi8+JiN4YTsJCTwvZmlsdGVyPiYjeGE7CQk8bWFzayBpZD0iQiIgeD0iNC42NCIgeT0iNC4xOSIgd2lkdGg9IjE0LjczIiBoZWlnaHQ9IjEyLjc2IiBtYXNrVW5pdHM9InVzZXJTcGFjZU9uVXNlIj4mI3hhOwkJCTxjaXJjbGUgY3g9IjEyIiBjeT0iMTIuMjMiIHI9IjMuNTgiIGZpbHRlcj0idXJsKCNBKSIvPiYjeGE7CQk8L21hc2s+JiN4YTsJPC9kZWZzPiYjeGE7CTxnIGNsYXNzPSJzdDAiPiYjeGE7CQk8Y2lyY2xlIGN4PSIxNi4xMyIgY3k9IjYuMjEiIHI9IjEuNzIiLz4mI3hhOwkJPGNpcmNsZSBjeD0iMi4xOSIgY3k9IjYuMjEiIHI9IjEuNzIiLz4mI3hhOwkJPGNpcmNsZSBjeD0iOS4xNiIgY3k9IjE4LjI4IiByPSIxLjcyIi8+JiN4YTsJPC9nPiYjeGE7CTxnIG1hc2s9InVybCgjQikiIHRyYW5zZm9ybT0idHJhbnNsYXRlKC0yLjg0IC0yKSI+JiN4YTsJCTxwYXRoIHRyYW5zZm9ybT0ibWF0cml4KC41IC0uODcgLjg3IC41IC00LjU5IDIwLjUzKSIgZD0iTTE0LjY5IDEwLjIyaDEuNTl2OC4wNGgtMS41OXoiIGNsYXNzPSJzdDEiLz4mI3hhOwkJPHBhdGggdHJhbnNmb3JtPSJyb3RhdGUoMzMwIDguNTIzIDE0LjI0NCkiIGQ9Ik00LjQ5IDEzLjQ1aDguMDR2MS41OUg0LjQ5eiIgY2xhc3M9InN0MSIvPiYjeGE7CQk8cGF0aCBkPSJNMTEuMiA0LjE5aDEuNTl2OC4wNEgxMS4yeiIgY2xhc3M9InN0MSIvPiYjeGE7CTwvZz4mI3hhOwk8ZyBjbGFzcz0ic3QyIj4mI3hhOwkJPGNpcmNsZSBjeD0iOS4xNiIgY3k9IjEwLjIzIiByPSIyLjc4Ii8+JiN4YTsJCTxjaXJjbGUgY3g9IjIuMTkiIGN5PSIxNC4yNSIgcj0iMi4xOSIvPiYjeGE7CQk8Y2lyY2xlIGN4PSIxNi4xMyIgY3k9IjE0LjI1IiByPSIyLjE5Ii8+JiN4YTsJCTxjaXJjbGUgY3g9IjkuMTYiIGN5PSIyLjE5IiByPSIyLjE5Ii8+JiN4YTsJPC9nPiYjeGE7PC9zdmc+;" parent="w5ZOCgXdWMlHR6tc9iUt-708" vertex="1">
          <mxGeometry x="46.5" y="12.5" width="27" height="30" as="geometry" />
        </mxCell>
        <mxCell id="w5ZOCgXdWMlHR6tc9iUt-712" value="" style="group;arcSize=7;" parent="1" vertex="1" connectable="0">
          <mxGeometry x="933.5" y="1498.9099999999999" width="70" height="80.5" as="geometry" />
        </mxCell>
        <mxCell id="w5ZOCgXdWMlHR6tc9iUt-713" value="" style="rounded=1;whiteSpace=wrap;html=1;strokeColor=#1971c2;" parent="w5ZOCgXdWMlHR6tc9iUt-712" vertex="1">
          <mxGeometry width="70" height="80.5" as="geometry" />
        </mxCell>
        <mxCell id="w5ZOCgXdWMlHR6tc9iUt-714" value="&lt;font data-font-src=&quot;https://fonts.googleapis.com/css?family=Roboto&quot; face=&quot;Roboto&quot;&gt;&lt;b&gt;VELERO&lt;/b&gt;&lt;/font&gt;" style="text;html=1;align=center;verticalAlign=middle;whiteSpace=wrap;rounded=0;" parent="w5ZOCgXdWMlHR6tc9iUt-712" vertex="1">
          <mxGeometry x="5" y="45.5" width="60" height="30" as="geometry" />
        </mxCell>
        <mxCell id="w5ZOCgXdWMlHR6tc9iUt-715" value="" style="shape=image;verticalLabelPosition=bottom;labelBackgroundColor=default;verticalAlign=top;aspect=fixed;imageAspect=0;image=data:image/png,iVBORw0KGgoAAAANSUhEUgAAACoAAAAwCAIAAADo7H/xAAAAA3NCSVQICAjb4U/gAAAFUElEQVRYR+1Xe2xTZRRfu+52rz7X7uXmGGzMPdgYSDZAQEY0m+hQNIaIMUPNFqIohsxoVHA+iZkvjMQwWJSIGqfBCRniFJwQYEwGo4ONQdn70ff7sdvb1rPd5fZre3fbbkv2z26a5n7f75zzO9853znfd1lutzts/h72/FFPMC/Qz2P85zn4nNks3ekOU1qdYxYiPjr8ntiZmApZR2d3NcrNf/RZFVbniJkAD8iHh7GzRBGLBRH5Uu62rNggV8UKvu5vafFGuQV+QMxsPU+CbcviBeNEsPTfXDfU/qdnZvVBwYmqZYKy9GgGraDod/6tau63MlhhgL7aKGXwIDD92p+GAkabgR4gBg8CFF7FacUsuYF+11nVqV764DHRg875YTvzyoJE97fpBoyEv/C09Hf0jppLWn+Fmc0Mm4mXzqj8daete1ZYmNo2VWDLJNjx8iRUOaO+nxreeT4tGKip13Ksy7Q9m4cK02+9bi1uJ9zL47mUKMr3aqFwV6EgVAjk1yRHHi1NCEz/9TXD5+2hVTlqlOG9doPk8SUxlAB97iFQDCZmA5lxF6pOk/seHf7RA3GHO41otaAJPthh+OyKJza/lSdBgyONMkAn5JbXWtQyNR4g+CfvWnb/oz5WltClxetkpgIpdnCTdNBEbGwYJjVJV178U/lEZuzm9OghM/Hgz15QfaeRxWLtyOWhUOszKXf1jr0XtKe2JlMe0Gy9ozdN702WXCqPU5wUyQ1nfd9l8gl4rgSDXnZFYa/+V+MDwaH3TrEIJnecVvpA0RzWUhH28bq4TGEECdHQH7iqP3DV4KM5h0M0jzS5fzKTB+v2WdbLywXPZvOEXPYtnWNL4yjqzfqUqJrVYlCB47+yWdWt82R3VSL3k3USEqo+p2kd9euhcN77PCfl5h+6TWbc+eEl7ZIjffAbNRMg83qLuqRhqGXQCu9QGihUJzPA8LDMgEJtY3YYopDSSpT+OozS0QS/30hs+mUY1rSvWJzGnwhPj87xyPERdMVUABkgkEebFQyhWZUtilkqmko8zNDQw+zW30eve1fIXOW++n5hVb6nY9K3naezvDozyf3GKlHDo4nlSM+ifIKdAeW0s8BjF4WgMexeIYSZmAh2Sar35cc385NjjY0YMDrI7MI/ZBom5Xr8x24TvCgsxFMnRkm0vnMi3yor8WW7Xmd34k4XtWPgBaDbOvz9i9pzQ1at3bn/8sQM+tAHHzz9a8C2Njly3OkmXG5JVPib5zUNPWZyTYceii9JjaLWt++iFo4ycvh2kagil09B394wftCqI4fvrhZni7GVCZ5jDOanpb+hwX0KjDI6s5cNKVFHHo730aXPPQjlxmGV+Z51wAx0wC0ZMVDE/vQrErgVOfycuKnOjwqAHYBgZm+x2F9x2tWTopXNyjODts3pMTVrxHyMDbmI4rA6VPgrZ1VwgQEZEhJgbJPDBQK39Q44C0gIvPl0gyRDEAEQbIs0vqfeKD8C0GvtLrPDdS+PA18Xe1rUoAbJq10vkUaHw90NXEnhcS6P2bc3KQACvreKRAVSLrQpOHJAq00xAe1ZKaQtClAJQA8ShnEXnALf3fQ6dcDifWJMY3PKDY46mRGNalU+P0eMEe4w+Co6JDNCzJ/LoSljUiUwPSnX1GuF0gIylIn5HS4BL+TxH1vsudv4ywdLD5pw4f+iXU+Vn78tambuv/Eo03K9o0M9fk2JXxix9Xlf3YsSIwsTuHlxWOkipu861O8QVu+/XDhhByf3PzyF8VyMDbfz0J5Z0YdGRSc9bduhE577uQX6uY9p0BYXgh90qOZecJ6D/z8Hltw4oe9yRgAAAABJRU5ErkJggg==;" parent="w5ZOCgXdWMlHR6tc9iUt-712" vertex="1">
          <mxGeometry x="15.93" y="11" width="34.13" height="39" as="geometry" />
        </mxCell>
        <mxCell id="w5ZOCgXdWMlHR6tc9iUt-716" value="" style="endArrow=classic;startArrow=classic;html=1;rounded=0;entryX=0.496;entryY=0;entryDx=0;entryDy=0;entryPerimeter=0;strokeColor=#1971c2;flowAnimation=1;exitX=0.5;exitY=0.998;exitDx=0;exitDy=0;exitPerimeter=0;flowAnimationDirection=alternate;" parent="1" source="w5ZOCgXdWMlHR6tc9iUt-705" target="w5ZOCgXdWMlHR6tc9iUt-709" edge="1">
          <mxGeometry width="50" height="50" relative="1" as="geometry">
            <mxPoint x="799" y="1519" as="sourcePoint" />
            <mxPoint x="560" y="1492.6" as="targetPoint" />
          </mxGeometry>
        </mxCell>
        <mxCell id="w5ZOCgXdWMlHR6tc9iUt-717" value="" style="endArrow=classic;html=1;rounded=0;exitX=1;exitY=0.496;exitDx=0;exitDy=0;exitPerimeter=0;entryX=-0.002;entryY=0.497;entryDx=0;entryDy=0;entryPerimeter=0;edgeStyle=elbowEdgeStyle;flowAnimation=1;strokeColor=#1971c2;" parent="1" source="9bAjtraM9IlFw_SEqSKU-16" target="w5ZOCgXdWMlHR6tc9iUt-657" edge="1">
          <mxGeometry width="50" height="50" relative="1" as="geometry">
            <mxPoint x="590" y="1240" as="sourcePoint" />
            <mxPoint x="640" y="1190" as="targetPoint" />
          </mxGeometry>
        </mxCell>
        <mxCell id="w5ZOCgXdWMlHR6tc9iUt-718" value="" style="endArrow=classic;html=1;rounded=0;exitX=1;exitY=0.502;exitDx=0;exitDy=0;exitPerimeter=0;entryX=-0.005;entryY=0.498;entryDx=0;entryDy=0;entryPerimeter=0;edgeStyle=orthogonalEdgeStyle;flowAnimation=1;strokeColor=#1971c2;" parent="1" source="9bAjtraM9IlFw_SEqSKU-16" target="w5ZOCgXdWMlHR6tc9iUt-705" edge="1">
          <mxGeometry width="50" height="50" relative="1" as="geometry">
            <mxPoint x="412" y="1257" as="sourcePoint" />
            <mxPoint x="770" y="972" as="targetPoint" />
          </mxGeometry>
        </mxCell>
        <mxCell id="w5ZOCgXdWMlHR6tc9iUt-720" value="" style="endArrow=classic;html=1;rounded=0;exitX=0.998;exitY=0.497;exitDx=0;exitDy=0;exitPerimeter=0;entryX=0;entryY=0.498;entryDx=0;entryDy=0;entryPerimeter=0;edgeStyle=elbowEdgeStyle;strokeColor=#1971c2;flowAnimation=1;" parent="1" source="w5ZOCgXdWMlHR6tc9iUt-657" target="w5ZOCgXdWMlHR6tc9iUt-665" edge="1">
          <mxGeometry width="50" height="50" relative="1" as="geometry">
            <mxPoint x="519.67" y="996" as="sourcePoint" />
            <mxPoint x="569.67" y="946" as="targetPoint" />
            <Array as="points">
              <mxPoint x="881" y="1059" />
            </Array>
          </mxGeometry>
        </mxCell>
        <mxCell id="w5ZOCgXdWMlHR6tc9iUt-721" value="" style="endArrow=classic;html=1;rounded=0;exitX=0.998;exitY=0.497;exitDx=0;exitDy=0;exitPerimeter=0;edgeStyle=elbowEdgeStyle;strokeColor=#1971c2;flowAnimation=1;" parent="1" edge="1">
          <mxGeometry width="50" height="50" relative="1" as="geometry">
            <mxPoint x="829.5" y="1476" as="sourcePoint" />
            <mxPoint x="933" y="1538" as="targetPoint" />
          </mxGeometry>
        </mxCell>
        <mxCell id="w5ZOCgXdWMlHR6tc9iUt-729" value="" style="group;fillColor=default;" parent="1" vertex="1" connectable="0">
          <mxGeometry x="306" y="1008" width="54" height="41" as="geometry" />
        </mxCell>
        <mxCell id="w5ZOCgXdWMlHR6tc9iUt-730" value="VUI" style="text;html=1;align=center;verticalAlign=middle;whiteSpace=wrap;rounded=0;fontFamily=Roboto;fontSource=https%3A%2F%2Ffonts.googleapis.com%2Fcss%3Ffamily%3DRoboto;horizontal=1;fontStyle=1;labelPosition=center;verticalLabelPosition=middle;fontColor=#7B838A;" parent="w5ZOCgXdWMlHR6tc9iUt-729" vertex="1">
          <mxGeometry x="28.07" width="25.93" height="30" as="geometry" />
        </mxCell>
        <mxCell id="w5ZOCgXdWMlHR6tc9iUt-731" value="" style="shape=image;verticalLabelPosition=bottom;labelBackgroundColor=default;verticalAlign=top;aspect=fixed;imageAspect=0;image=data:image/svg+xml,PHN2ZyBjbGFzcz0iaWNvbiBpY29uLXRhYmxlciBpY29ucy10YWJsZXItb3V0bGluZSBpY29uLXRhYmxlci1zYWlsYm9hdCIgc3Ryb2tlLWxpbmVqb2luPSJyb3VuZCIgc3Ryb2tlLWxpbmVjYXA9InJvdW5kIiBzdHJva2Utd2lkdGg9IjEuNSIgc3Ryb2tlPSIjZmZmIiBmaWxsPSJub25lIiB2aWV3Qm94PSIwIDAgMjQgMjQiIGhlaWdodD0iMjAwIiB3aWR0aD0iMjAwIiB4bWxucz0iaHR0cDovL3d3dy53My5vcmcvMjAwMC9zdmciPiYjeGE7ICAgIDxjaXJjbGUgZmlsbD0iIzE5NzFjMiIgc3Ryb2tlPSIjMTk3MWMyIiByPSIxMSIgY3k9IjEyIiBjeD0iMTIiLz4mI3hhOyAgICA8cGF0aCBmaWxsPSJub25lIiBkPSJNMCAwaDI0djI0SDB6IiBzdHJva2U9Im5vbmUiLz4mI3hhOyAgICA8cGF0aCBkPSJNMiAyMGEyLjQgMi40IDAgMCAwIDIgMWEyLjQgMi40IDAgMCAwIDIgLTFhMi40IDIuNCAwIDAgMSAyIC0xYTIuNCAyLjQgMCAwIDEgMiAxYTIuNCAyLjQgMCAwIDAgMiAxYTIuNCAyLjQgMCAwIDAgMiAtMWEyLjQgMi40IDAgMCAxIDIgLTFhMi40IDIuNCAwIDAgMSAyIDFhMi40IDIuNCAwIDAgMCAyIDFhMi40IDIuNCAwIDAgMCAyIC0xIi8+JiN4YTsgICAgPHBhdGggZD0iTTQgMThsLTEgLTNoMThsLTEgMyIvPiYjeGE7ICAgIDxwYXRoIGQ9Ik0xMSAxMmg3bC03IC05djkiLz4mI3hhOyAgICA8cGF0aCBkPSJNOCA3bC0yIDUiLz4mI3hhOzwvc3ZnPg==;" parent="w5ZOCgXdWMlHR6tc9iUt-729" vertex="1">
          <mxGeometry y="3.33" width="24.07" height="24.07" as="geometry" />
        </mxCell>
        <mxCell id="w5ZOCgXdWMlHR6tc9iUt-732" value="" style="group;fillColor=default;" parent="1" vertex="1" connectable="0">
          <mxGeometry x="769" y="1389" width="54" height="41" as="geometry" />
        </mxCell>
        <mxCell id="w5ZOCgXdWMlHR6tc9iUt-733" value="VUI" style="text;html=1;align=center;verticalAlign=middle;whiteSpace=wrap;rounded=0;fontFamily=Roboto;fontSource=https%3A%2F%2Ffonts.googleapis.com%2Fcss%3Ffamily%3DRoboto;horizontal=1;fontStyle=1;labelPosition=center;verticalLabelPosition=middle;fontColor=#7B838A;" parent="w5ZOCgXdWMlHR6tc9iUt-732" vertex="1">
          <mxGeometry x="28.07" width="25.93" height="30" as="geometry" />
        </mxCell>
        <mxCell id="w5ZOCgXdWMlHR6tc9iUt-734" value="" style="shape=image;verticalLabelPosition=bottom;labelBackgroundColor=default;verticalAlign=top;aspect=fixed;imageAspect=0;image=data:image/svg+xml,PHN2ZyBjbGFzcz0iaWNvbiBpY29uLXRhYmxlciBpY29ucy10YWJsZXItb3V0bGluZSBpY29uLXRhYmxlci1zYWlsYm9hdCIgc3Ryb2tlLWxpbmVqb2luPSJyb3VuZCIgc3Ryb2tlLWxpbmVjYXA9InJvdW5kIiBzdHJva2Utd2lkdGg9IjEuNSIgc3Ryb2tlPSIjZmZmIiBmaWxsPSJub25lIiB2aWV3Qm94PSIwIDAgMjQgMjQiIGhlaWdodD0iMjAwIiB3aWR0aD0iMjAwIiB4bWxucz0iaHR0cDovL3d3dy53My5vcmcvMjAwMC9zdmciPiYjeGE7ICAgIDxjaXJjbGUgZmlsbD0iIzE5NzFjMiIgc3Ryb2tlPSIjMTk3MWMyIiByPSIxMSIgY3k9IjEyIiBjeD0iMTIiLz4mI3hhOyAgICA8cGF0aCBmaWxsPSJub25lIiBkPSJNMCAwaDI0djI0SDB6IiBzdHJva2U9Im5vbmUiLz4mI3hhOyAgICA8cGF0aCBkPSJNMiAyMGEyLjQgMi40IDAgMCAwIDIgMWEyLjQgMi40IDAgMCAwIDIgLTFhMi40IDIuNCAwIDAgMSAyIC0xYTIuNCAyLjQgMCAwIDEgMiAxYTIuNCAyLjQgMCAwIDAgMiAxYTIuNCAyLjQgMCAwIDAgMiAtMWEyLjQgMi40IDAgMCAxIDIgLTFhMi40IDIuNCAwIDAgMSAyIDFhMi40IDIuNCAwIDAgMCAyIDFhMi40IDIuNCAwIDAgMCAyIC0xIi8+JiN4YTsgICAgPHBhdGggZD0iTTQgMThsLTEgLTNoMThsLTEgMyIvPiYjeGE7ICAgIDxwYXRoIGQ9Ik0xMSAxMmg3bC03IC05djkiLz4mI3hhOyAgICA8cGF0aCBkPSJNOCA3bC0yIDUiLz4mI3hhOzwvc3ZnPg==;" parent="w5ZOCgXdWMlHR6tc9iUt-732" vertex="1">
          <mxGeometry y="3.33" width="24.07" height="24.07" as="geometry" />
        </mxCell>
        <mxCell id="w5ZOCgXdWMlHR6tc9iUt-735" value="" style="group;fillColor=default;" parent="1" vertex="1" connectable="0">
          <mxGeometry x="769" y="941" width="54" height="41" as="geometry" />
        </mxCell>
        <mxCell id="w5ZOCgXdWMlHR6tc9iUt-736" value="VUI" style="text;html=1;align=center;verticalAlign=middle;whiteSpace=wrap;rounded=0;fontFamily=Roboto;fontSource=https%3A%2F%2Ffonts.googleapis.com%2Fcss%3Ffamily%3DRoboto;horizontal=1;fontStyle=1;labelPosition=center;verticalLabelPosition=middle;fontColor=#7B838A;" parent="w5ZOCgXdWMlHR6tc9iUt-735" vertex="1">
          <mxGeometry x="28.07" width="25.93" height="30" as="geometry" />
        </mxCell>
        <mxCell id="w5ZOCgXdWMlHR6tc9iUt-737" value="" style="shape=image;verticalLabelPosition=bottom;labelBackgroundColor=default;verticalAlign=top;aspect=fixed;imageAspect=0;image=data:image/svg+xml,PHN2ZyBjbGFzcz0iaWNvbiBpY29uLXRhYmxlciBpY29ucy10YWJsZXItb3V0bGluZSBpY29uLXRhYmxlci1zYWlsYm9hdCIgc3Ryb2tlLWxpbmVqb2luPSJyb3VuZCIgc3Ryb2tlLWxpbmVjYXA9InJvdW5kIiBzdHJva2Utd2lkdGg9IjEuNSIgc3Ryb2tlPSIjZmZmIiBmaWxsPSJub25lIiB2aWV3Qm94PSIwIDAgMjQgMjQiIGhlaWdodD0iMjAwIiB3aWR0aD0iMjAwIiB4bWxucz0iaHR0cDovL3d3dy53My5vcmcvMjAwMC9zdmciPiYjeGE7ICAgIDxjaXJjbGUgZmlsbD0iIzE5NzFjMiIgc3Ryb2tlPSIjMTk3MWMyIiByPSIxMSIgY3k9IjEyIiBjeD0iMTIiLz4mI3hhOyAgICA8cGF0aCBmaWxsPSJub25lIiBkPSJNMCAwaDI0djI0SDB6IiBzdHJva2U9Im5vbmUiLz4mI3hhOyAgICA8cGF0aCBkPSJNMiAyMGEyLjQgMi40IDAgMCAwIDIgMWEyLjQgMi40IDAgMCAwIDIgLTFhMi40IDIuNCAwIDAgMSAyIC0xYTIuNCAyLjQgMCAwIDEgMiAxYTIuNCAyLjQgMCAwIDAgMiAxYTIuNCAyLjQgMCAwIDAgMiAtMWEyLjQgMi40IDAgMCAxIDIgLTFhMi40IDIuNCAwIDAgMSAyIDFhMi40IDIuNCAwIDAgMCAyIDFhMi40IDIuNCAwIDAgMCAyIC0xIi8+JiN4YTsgICAgPHBhdGggZD0iTTQgMThsLTEgLTNoMThsLTEgMyIvPiYjeGE7ICAgIDxwYXRoIGQ9Ik0xMSAxMmg3bC03IC05djkiLz4mI3hhOyAgICA8cGF0aCBkPSJNOCA3bC0yIDUiLz4mI3hhOzwvc3ZnPg==;" parent="w5ZOCgXdWMlHR6tc9iUt-735" vertex="1">
          <mxGeometry y="3.33" width="24.07" height="24.07" as="geometry" />
        </mxCell>
        <mxCell id="9bAjtraM9IlFw_SEqSKU-8" value="" style="group;arcSize=7;fillColor=none;flipV=0;" parent="1" vertex="1" connectable="0">
          <mxGeometry x="-7" y="1138.3300000000002" width="50" height="49" as="geometry" />
        </mxCell>
        <mxCell id="9bAjtraM9IlFw_SEqSKU-9" value="" style="rounded=1;whiteSpace=wrap;html=1;strokeColor=#1971c2;" parent="9bAjtraM9IlFw_SEqSKU-8" vertex="1">
          <mxGeometry width="50" height="49" as="geometry" />
        </mxCell>
        <mxCell id="9bAjtraM9IlFw_SEqSKU-10" value="" style="outlineConnect=0;dashed=0;verticalLabelPosition=bottom;verticalAlign=top;align=right;html=1;fontSize=12;fontStyle=0;aspect=fixed;pointerEvents=1;shape=mxgraph.aws4.users;fillColor=#1971c2;strokeColor=#36393d;" parent="9bAjtraM9IlFw_SEqSKU-8" vertex="1">
          <mxGeometry x="8" y="7.5" width="34" height="32" as="geometry" />
        </mxCell>
        <mxCell id="9bAjtraM9IlFw_SEqSKU-14" value="&lt;font style=&quot;font-size: 8px;&quot; data-font-src=&quot;https://fonts.googleapis.com/css?family=Roboto&quot; face=&quot;Roboto&quot;&gt;https://&amp;lt;your-deploy&amp;gt;/api&lt;/font&gt;" style="text;html=1;align=center;verticalAlign=middle;whiteSpace=wrap;rounded=0;" parent="1" vertex="1">
          <mxGeometry x="182" y="1191" width="96" height="18" as="geometry" />
        </mxCell>
        <mxCell id="9bAjtraM9IlFw_SEqSKU-15" value="" style="group" parent="1" vertex="1" connectable="0">
          <mxGeometry x="301.75" y="1283.75" width="70" height="80.5" as="geometry" />
        </mxCell>
        <mxCell id="9bAjtraM9IlFw_SEqSKU-16" value="" style="rounded=1;whiteSpace=wrap;html=1;strokeColor=#1971c2;arcSize=7;" parent="9bAjtraM9IlFw_SEqSKU-15" vertex="1">
          <mxGeometry width="70" height="80.5" as="geometry" />
        </mxCell>
        <mxCell id="9bAjtraM9IlFw_SEqSKU-17" value="&lt;div&gt;&lt;font face=&quot;Roboto&quot;&gt;&lt;b&gt;NATS&lt;/b&gt;&lt;/font&gt;&lt;/div&gt;" style="text;html=1;align=center;verticalAlign=middle;whiteSpace=wrap;rounded=0;" parent="9bAjtraM9IlFw_SEqSKU-15" vertex="1">
          <mxGeometry x="5" y="45.5" width="60" height="30" as="geometry" />
        </mxCell>
        <mxCell id="9bAjtraM9IlFw_SEqSKU-19" value="" style="shape=image;verticalLabelPosition=bottom;labelBackgroundColor=default;verticalAlign=top;aspect=fixed;imageAspect=0;image=data:image/png,iVBORw0KGgoAAAANSUhEUgAAAMQAAADECAYAAADApo5rAAAAAXNSR0IArs4c6QAAAAlwSFlzAAAuIwAALiMBeKU/dgAAAVlpVFh0WE1MOmNvbS5hZG9iZS54bXAAAAAAADx4OnhtcG1ldGEgeG1sbnM6eD0iYWRvYmU6bnM6bWV0YS8iIHg6eG1wdGs9IlhNUCBDb3JlIDUuNC4wIj4KICAgPHJkZjpSREYgeG1sbnM6cmRmPSJodHRwOi8vd3d3LnczLm9yZy8xOTk5LzAyLzIyLXJkZi1zeW50YXgtbnMjIj4KICAgICAgPHJkZjpEZXNjcmlwdGlvbiByZGY6YWJvdXQ9IiIKICAgICAgICAgICAgeG1sbnM6dGlmZj0iaHR0cDovL25zLmFkb2JlLmNvbS90aWZmLzEuMC8iPgogICAgICAgICA8dGlmZjpPcmllbnRhdGlvbj4xPC90aWZmOk9yaWVudGF0aW9uPgogICAgICA8L3JkZjpEZXNjcmlwdGlvbj4KICAgPC9yZGY6UkRGPgo8L3g6eG1wbWV0YT4KTMInWQAAI1tJREFUeAHtXQm4HFWVPlXVy3v9tuRlT4CgkYAxAQlLkhfJQgABBwQ0GUUUGEdAxSBJEGF0bPRTEbeB0W8EHJzByJIEBWVVk7wX+EIIyQQIYTEB2ULMnrf3UsucU9XVy3vdVdXddauru2/BS1fV3c79z/3veupeAH5xBDgCaQSE9F32TVQTT5kAEsDW7Lf8nhkChDPHmhm8WRG3TJ2odS6MylmvbG41LT9JbIJxZ45ALSAQyMkEtgwgCOrUNe+fIGjJc/E+pmmqmOOHP7iIAMKtiVpEeVQLaC+JoDYDiEomfjV1Sxow7+lV9rN5n09LFMZ0N8PRrxmX6WaGzeff9Evhsi8zbL53heIz/Zru5rMbv1ayY3qqAKqoimEsz7u3XPbTNakkqfLXspPPIcQpE7ZK2HCropacHxhz9M+V3kMgiAEMoYGA/9EvXdn32c/0ni7Tv3FH/jOpmn5MNz1A6h/TzQg/PIyZvhkmtynLlc8MTRJn+8vJve5mhDPSNlLIvafUsv3QsxFLbtxD0zdyaKZt+M2Ox3ij4Y+YCIMkhjDWBow7ixCUFL9cQUBUNJCaGiBxsOd1jNAgBIEvmBoykskhRDplAWJK9wFQ44NxfIdjiaEXRUIKdXoV639ovOWGHxpfKc/lypAdPnVPytAEVZPjqqIlAhrEULBCVXIpMvMwGQQEWVPUBqzsDmfeDb/LSwjqJgkStQwQQJXlIUQxZKBEi/U/VNByww+Nr5TncmXIDp+6xxoK214Vn4gFeXVRiqQ8TD4EVEGQgqAmZUucLXtzgiBkazFfKvxdyQgMhXboc8kR84D5EMCynELYEmhLQmh8xikftIzeUTeKXywRSCFsCbQlIVgKx+MeioBlxTXUM38uAQEnCHNClAAsD1K7CHBC1K5uec5KQIATogTQeJDqRMBy8JDKEieEb3TrRF2+EbYqBeFjiKpSmxN1VVWGqlJYyxaCr0NUpU650GUgYEmIMuLlQTkCfkXAsinmhPCr2rhcrBCwHKxxQrCCncdblQhYEoKbblSlTrnQ1gjwLpM1Pn5xtWzJ/SJkLchhCbRlC1ELued54AgUgwAnRDFoMfVr2ZIzTZlHnkGAEyKDBb/jCOifoHMYOAIcgRQCvIXwTVGwHOv5RspaF4QTotY1zPOXRsBJlcMJkYar0jd8UM1aA04QtiQEN+5jrSIev98QsCQEX6n2Ul1OGnQv5am9tJwgbEmI2oPEzzly0qD7Wf7akM2SELzLVBtK5rkwEHBS5VgSgneZeFGqNwQsCcFbiHorDnWRX8uGwpIQdQGPbzLpZMjnG2GrWRBLoC03fqUuk2Vol2GhXZW9TK+Q+LQhPe0+7K0slhVXIVGZvsfTK5hgoJS9+TW7bFsSgl2yw2Om4hD3QZkgEZqx3cTjBCCJ996SYjgulXyT1NhszS95Ws0Wh6CvCNGPslOB9LQQUmIpItIP7f//ZlKDKZKgE2MAX3rTr/Q015hT+0vGzd9pr343L8olq5bHDTktCaEPqs1NxN1IbUgchHUEEXoBC+DlbQGIzh4NISyIVDsXLB7kkE9J+d7nezdEhuxHipbS/9uBGMzbdAhG4YvJ+NyDv3kOycgO6sJ9vky5EG2RUVBhjWsKNOHJUffMuwrGtrRDUpHxoJ2CGnGUAna/8ZQkEWJyEm55ZiX8ufs9+ECwERKMWiELoSyBtiSERaSuOem1L4LVggXv2Pawa/GWE9G4liC8EJbgzGcOwHZZg48GBTiMvQf2pChHanfCUrGnjpKExDhm5Hhoi7S4E3EqFiqNTYEQ7EPSTSlc7bmaphlZitKWzLbsDXi2DoG1D7UKCdnosyrYTqtIkuL+UJFFhzG6BPnCnTQxAhsXjIHxSNTnExqMpHGFiWwd/FLBTWBtTpeiKoitWtafohq6jcsJXU9hJINlVa2n7O4/TtKreAthZplaZDHVLNNv6tZ0dvhrSX6LOIaHU5GUx49thA2LxsEXN+yDdQMKzA6LcKBOWgoCy+wmiQJ2pEpTSBpz88BMU8cGPdLOvrmxbCF8I2UFBBFFPMcVSUHduN+dOQ4uaA7AppgKoxExvyqzAjDVXJKcEBYqJVJQ9218awjuwZbiyvYQbBp0ixTDWyULUbiTCwg4QdySEPoskwuCOIrCSQfPUUTuepJSpBjdFITbsaX42rgwPDtgkKI8kYeGdqIud/NWb7ENRTxf/i0JkS8Ay3dOBGaZfqG4TVK04MzTD+ePg28d3QDP9iswylX0/Jr7QqiU+977/DqpcixV6tksUwpbJwKXq4ZSwxMpaEzRFBLh3+eNg1unNOmkoNknktt79ZaaE7+E817bTnRkSQhPu0x+0ZOFHPpAG6d2g0iOFR1j4BfHN8MmbClaEUVao3ACuEX03MkHCFgSwlP5vK8wSsoeTRvSugXZ43x11hj4n+mtsBlJ0YTyhzDG0klRJQCUhJo/AjlB2JIQXneZ/AGbvRQmKcjn5TNHwaqTR8AWXKcgMMOIemnTsqVTyV5i7oMQcIKwJSE4jIURMEhhuC+eMRIeO70dXoqrgI2Hbp9VPCmc1F+F5eEu9gg4QZgTwh7Hgj5wKKETgDycf0IbrJvTDi8jKbqRDc3oVk+mHgVB8pEDbyE8UAZZNFCrQNacC6e0wqZ5o+EtNMw6gDNSbUWRwom6PMhQDSeB6rC96qKFoALL8jLMfNBYDROadUwzvDB/DLyLaW5FS9kRiDBvKVii727cdUEIoxZnywqdFPgPzUCRpexrC8fCcfi10Rb81qPdESmc1F/uKp/HNhwBS0J4ug7hcnk1W4UD/TLsxA9+yFqTanCXk8lBlIq0OQNFlrJ/RlOPeWghuxnHFbSqzVuKHLh8+WBJCE8ldrmCNIt+QlFhVuc+eGnPgCekIMyIFGQUSJayD6BR4IVoKfsckmIMol149oklVT3VZFUnZkkIT9chGJWHAE4F9WLhPGn9Ptj6Xr/xzQW1FIzSM0uDaeoxAS1l/xtJccXIIDzrmqWsmQr/LQYBJyq3JEQxibnh14nAxaaDXIDpkgiT8Mu3UzccgA1/701/7EJdKJaXaT6uW8ouHA/XjkVL2RQp2Kbsbq7YyMom1nJz7itCuNxr0rGhOHuw4LdhSzENv42e/8xB+MvObiSF8UUYY07gh/WGUWBrgwQ/WjgOvn2UYSnbTosYVXKxkZRNrOVC6h9CMMSHDO/6sOQ3YBonNohwzqbD8PCOIzp2RAyaGWJ5mUaBkaAI3zpjHPzgg026UeBIJEUm25k7lrLUc9xOELYkhKezTAw1RcWdSBHDG5rpOblRhIu3HIb7Xjykp2rODOkPjP4x06Btbm6cOxZ+eQJZysrQioykxsKcBGCUPI/WIQKWhHAYR9V4oxoiQX9IjNOaJPjcS91w95YDuvxmgWWZGTMNIsBXTh8D96Cl7PNoFNiIH/EHKrALBcu82sfNtlXOl76TFC0JUQuzTBlgjAaTMkybq/QiOrMiEly1oxd+/ux+kHH0rRdYGoUzvExSUBJXoqXsQ6eO0J7pp9kvgCASg7cUDMF3ELUlIWqly2TgkCnoRA1aDyAjvNnNEizb1Q+3PrMP4rgvlDkz5AC7kr1kSKHBJdNaxcdmz5E2DvThVLCC5uMSypaRteREfB/QqKD8JqYlITwV1mN8KDkqdoeQFHMiInz7rQH4Nu6/1BdX9JkhWlhjeREpUmN54fxps4Su+dfBc4luGMRNwSJCoA5IwRbfUnVnSQhPu0yl5sAuXJpo6ZucEPT2IJECxxQ/fj8GN3TuhSODsiekSJuTIDPmfWgmPDv/WtiW7IPDSgK/wKt1UuTXR45yKvBgSYia6DJhRWRAX7hGInfakW8Ozj79an8CvrxuL+zrS3pGCtI7LRLO/sAMeOns5RDDtus9eRBaxGAdtBQVKPUWSVoSwiKc+05YXgsXWfeTGxojAUGkmI2keKA7CVes3Qu7uxPphbWh/t18ppaCVgpp/9QZk46DR8++DpqlILyS6OOkcBNoIy7LYmZJCE+7TFQm3M+8HqMlAllpmqSYhRaqT+AawSVIijcOxvSBNi3eOY0nK0rHt5R32kOVSHHCuGPhT+cuh9Ma26Er3o2r7CHeUjhG0tajZTGzJIRt1DXogRbwaExxGpltJ1Q4Y90+eHXvoD4lS90alqQgOHVS4E7Zk9snwK/PuRYubh4P62OHOCk8Kmv+IQSWNNaFzSmmRAo6D+JUtH3qx9mmaWgpu223d5ayIh4sQtvHT2gbA3d/fClcPWoqrB88ACOlEGLkF5Scolld/vxDCMTNsi3zGFcixREkxYfQ1OIoFGxm137Y+Fa2pSxbgei0HSLFqOYRcNvZV8PScTNgbf9evaXglGCHvX8IwYoNZcRLpKAV7TFIiqkBEeaipey6XT0pS1maGWKnGIrZJEVrQxP88KwvQXTyXFjXvwdJEWSbcB3H7h9CsFJCutCWxgwCqA/jQCNZ+AiOKxY9ewj++Kp3lrJEChVbikioAW5e8AX40ZRFsK5vN84+kfWTf7qZrNTndbz5TxAik1Cs/rAM4DgyXaLYyUZp4B+rlAQ9fhS/xBJEpCBLWdqV72S0If/k84dhVVKFxSe26zZINANFK8+sLhpTECmCUgCWz7sUWkMR+PIrj8CC5om4si3rM1BupE74k02VqOeHlTYMNYTxhFOy3KKDtdyQ3R57tCo2SphlxvITQsLOAoKvkmFPuhSR2GZc2ff2omTiMP1mwutHw6OyQaQOCoMLk9IwLxoqgLSdn+AZeQwJhj4bOYihYxAL/sxmgCUv9cGvFQG+ePJIgxRkHEhwMbp0UuCULLUY13RcApFgGC5/cRWcHpkEMr4nWtDXFZlqxcyD+UuCmfJl6zFbYA0CmggDSIgGlaoBNpeiCWhHJuJpp3gqKVVWBeXKdiskSz4/w99hpSiImJ6iWtdceQkhDMY0EYWGONowMLxIbOyeoz22qgkRqn81ZAW9GJ6hksVABkiDAzi9T8fC2hz5a5MIFRGkrm5CPgcf/nXLACT6B7SrOyZiORUEqsWp4LK6zHUK+v3CaZ+AlnCjdskLd6rnNU7SEZPRODD7k6NS5KBjeds0GY/lxZqbKlVUiIva0FUbCSrKSaE4jAmG0BTfo71IBJBFSZXUsKxstwAmlxBbt+peW9athQDWQIocN9CwiKAcJwK6EQeroUMxCMwcD3DeUfjG3QIlJGLQtnYdyLKiNQQlwQ2jPZKbiLEIv4D7yu8HoOeiqXD9ledAKIStqiekMLpoF594JmweqcCf3jwHWgNnYQFGS1ktoZOCZMy+hlYzQ91Nv8QBVYtDQGyCgES5pCqKfFMM5V9YX2gnjX0XRjc9ozVIkwWSt9Blymy6D30231v9mmHoN4ADwSSeE/iXVADqrNH77CuXECkXMZ7A5kUCLZkIIBSM+jIpiLHpDMYRFBkPBx8mXraopd1jAyEIiaQkyFgTUW3kghWrCWIfin32hCB887cvQiyWhG9cfR40NuCqMnNSGF0/NPkQTjv6bKkx2AmP7FoAjeJcCImNSFbq3JVWsRiEQDsuQR9Ilga6ZShNkERVCohIOgk7etgaeXJhQQ4FsUwnFMvynJcQ2LfAzgv+qVKhisSVPOj93VRa1D67mhhFliq5el6or0rdGbM0u5ID/KYCd+Y764QREH34NTjcMwi3fP1CaGuJ6GsI1N9ndZH9kzkemj5+Ph7ishke+tuncIxzFN634rnfg5g0pV8cqoJuPkIdp2ygsu/LzxF2kJEI1JpSa+Ru3BnpKF4z73iPcOnp2dSIhTVGBYj5X0rmlNyuQpOKjH6MWaZUIi7nieLviSlwNm50fPuGd+DG2/4ABw/36oNfailYXrpRICZAxDh+7Gnw2Q8/ikWgB4dke7HL04gZxzEFCljUX6oQpeBjJD7pAicBcHRSlGxF5SU7buoc0TP+0a3FVZgQFoGq08kSh7KyREo9EpPhrMktcOfWPXBNdBW8v/eQPsD2ghSUPhkFfmDUifC56X/AFmIExJT3ISA0YzEokZTs4EqVSIYJFNJmqk4s5Ezv64gQVjCU70brEN1IikUTm+CRN4/Al6Jr4J3d+z0hBfUHzBmoSW3HwaXTfwORwGTol7eXR4ryYfFXDA44aEcIB1H4K8+VlIZI0YOkOGNsBF7e2w+X3PggvL5rd5oUZp+flYwmKca1HAufm3EXjAovQFK8iKRowZbCQfXISrAh8VZMEgcJ2xFiSFaq+dEBGi5kj0jRG5dhyoiw3mJccPMaePm1d3RSUPRekaI9MgE+O+M/YELkk9CdeDzVUniDgTMY/SRLRuI6IoR3jR2Roi+hwCTc6LgJVx5nrFgNz23biYM6QwZvSIHHBTeMgn+efitMabsBepKP4wxUS0bzXt9lwW/cZr3wShYHSdYRIbxC3UiHSDGApGhtCMApSIzZ33gYnn7uVZ0U2VOmrKQS9UU6MgpshU9/JAofHvldOJR4DNcXmlglaR1vVoNg3Ga9sA7pnquDJGuXEKnMZzDI3LmHsHVMRIrBJG4rExKhY0IjzPvmH+GJ9dv0QEQK5nvK6msKuNdTIAIXTfsmzBz9EziC3SeDFPmryzRK6RvrPJbumj/90uNzJ2TtEiKFdwb2zJ070DmLhUgRx7PmiAAfw/Pnzr/pSXjkqef1wOSmurBybiWJ2VIE8BuKCz58PcwZfxccjD+Os1INGIwwyS35aZTSN1axV5mbgzzVLiF8pCss95DEk0lpRWDBtDa46HtrYeXvn9YlJAtZ1msV5uwTrUKfM/VLsPCoe7GleBJJEUZKkLFCLim8ga4CaTpIkhPCG+1jC4HmWtga0HaZC6e2wud/+DTcfd86vdtkfu/AUhQihYaLd3QtnPJ5+PjkP8Dh+FP4REYalSCFg+pal9blf2wshDghXMbbKjoqAthQwCCSYtFJI+Gq/9oMd9zzpEaWuF6QgloIkxRzJl8EF3zwcehNrtXbBwHMDQwqVFCtgHPTrUzTDQeNjJvS1n5cVNzInIr2kF00dQRcf9c27b6Nv1JkGDAW8FK1OCskDFIYaj316PPgkuM2wIBMLVUMzZrDSI4STT2KENigXAWKlgOu8xaiCEW67bUviavax42CbQfXwO9fuQUGcac+o7/P9qMZc9qX1kOmTzgDPn38Joirr+KXd304A0WDbSQFw/JqRO2gdLoNuIP47AjhT6kdZKwavBC43biq3R46DnZ13wYPbr8ZV7nRKDC1hsAyD0QKmmQiUpwwdhZcOm09cgC/AFQO6NOy7FsKhowrAzg7QpQRNQ/qBAH6DDupDkBbaBG81/8QPLB9Be4+vs+bloIYgf+Tpeyx7TPgM9MeRLP1RrSUfRvNxyNOxC/JDyZZmcsBBzkhKqOanFRpnkdWu6E5eDLsiz0Bv9t+Dezve9eblgLTNqdljx5xPFw2YyXKcQKOK97AmTE2xcNBuczBx9UHPsvkKpwMIxORFP3QHDgZZ35eh/te/iLs6XkjXViZduoxV+bYZWzzMfDZ6b+CkeFTUR46fMz9y2ghKtBOUJJlzjK5jwaPsSAC1K+ngW2jdAx2W/bC717+DLx9aIdeWKmvz9qE2xy7jG6ahEaBP4EGNPnQL5fLbkVbiILoGw5s2kSbRLlzYQToI39Z64ewNAEJIML9r34Sdh34P6P7giXJC0tZWqtoaxiNNljGdxS531cXlt2pi8Evf9KCE8KpFj30R6RQtAH9U9CAMB4efPVUeOUfG3V7KBoEsyZFZq2C+hcuNw+IY8Wo4CBhTggPC3oxSRmkwMUyoRH3rpoHa3bOhRd2r9ULqLmOUEx8xfrVp2UZkIHkMCjmPtGKzWM+/5wQ+VDxyTuqnVXcJ5BsjVoCi+CRN86Cze88qktnkIL9qrJPoHBHDAcctCOEg0bGHVl5LPkRIFJo+lHzGrQGz4bH37oAnv77g7rnbNuk/KH9/NafRcuOEH5GtI5kI1LI+t+I0Lnw13c+A2t3/S8+03cWtNkXbyncKgx2hHDQyLglCo/HGgFShaIb4bWHz4UNu6+Ax1/7BT4rWWsV1jH4y9WfRcuOEP7CsBhpUi2yPxvmYjKS7ZcKkaZvU9ke/gQ8v28pHt7yM/z4KJ5eWMv27df7iunEQcK1S4hUBeTPeqj8oqrgAt7I0Pnw4oFvwEM7vgexJB0KSbt/8+5TQXQdFIbaJURBVGrHwSDFJ2Bn9/dhzY7vQH/8SFW1FH7UhB0hHDQyfsxWvcgkQFLrxdmn8+Gt3tvhvu3LUpay/m4pHFTUFVOgHSEqJhhP2BkCNC1L9k8twXNgf+xJeODlr8PB/vd9PdD2cy1rRwg/k9lZiakDXwYpeqEp8FHcOGALrNx+BVrKvulbUhiFqgK0cJCkHSHqoDjVRhYNo8A+3PV7ClrK7oH7d1wB7x15XScFGeuxtpQtHsUK1LUOkqwjQjioHorXqq9CZCxlJ+EJRoOwcsf58MaBbRlLWaSFHy5DCn/IMhSP/EdqDfXF+JlYSRacxoZdNCDEFdgy8dItQnGjYdbbRTKGpujoDaPAQTzTuh0ENQgPvnY+fGrqI3jC0Ol6K0HTsg4qyqLTtQugr6rjvh7mNjimiZ9dOFfdHZQpO0I4iKJ8kemsYjqPLRQK6pG5czabofYwngxabxeNKRTcVoZOEBLEqbDq9VlwobwWTpp4pmFCXgFATBIGJdwtUP80le3OInmzaAqR19F4WdHSQvJRDT4ej7ftw1M833p3H54UGdAPLDTMjy0kt3GiFoLi2rPviO7TC5NpG5E8ddZJAbSCjVvyBxbgKaWLcEX7cZgyaqb+aSi5G8CkxKKqj16ZVWCh+5R3M/gw/9nhyG/qmVoIWjiU1RjKgXtQCRHm33WYoub82nxTbUcIyg7TK4Fb2U1qCsILbx+Bc5bfn8bXjUSRE3hMrQCtuPt2gPZQNZXtRuRVEAcVei1lPt4cPBOeevsyCL17NEqud1I9zoHJFOzU4TkVQXEUysbmm+2CGSP923xTbUeIgnG77UA7YY/AgssvtxEwLGWJBBFpJlYKcbcTKDq+dOtUdEj2AXxDCMpq0DxHmphs1zaZfsxfioDu6coKqw/WzfeGax3+a9TOVCOLAo3ThgJi1t6FoLFzzw5n5deUo0L2VpS8zeUrQijUxzF1Zf5aZcD0Y/6afoc+m+/5L8JbgcFsFeHO+yhVpCwuKnsEOCHYY8xT8AsC1HOwmWWyIwTvfPhFmVwOdxCwmWWyI4Q7QvBYOAJVggAnRJUoiovpAgIOZpk4IVzAmUdROwjYEcIBp2oHDJ4TjoAdIThCHIG6QoAToq7UXeeZdTBnakcIB1HUOcg8+zWFgB0haiqzPDN1joCDEbEdIRxEUecg8+zXFAJ2hKipzPLMcATsEOCEsEOIu9cVApwQdaXuOs+sgykiTog6LyM8+7kIcELk4sGfahkBB1NEnBC1XAB43opGgBOiaMh4gFpGgBOilrXL85aLAB9U5+LBn+ocAT6GqPMCwLNfNAK8y1Q0ZDxALSPACVHL2uV5y0WAjyFy8eBPHIFyt6HhCHIEagcBGlTzbWhqR588J2Ui4EKXyUEUZQpZt8E5tBVRvc3OfXk3OxYE3DMbNx7GHepp/2EHs7cVyZqfE5XshUPNECc0BBsBt/fPyAcem4H/sUvf6KYwEt55tAgznthGhRnPFLO48hICz3oJhcIRSMa1sKgff2QRA3fKIIA1CB6UB4ocxy22CThtWGViln39F12lINIB1GH+MpEyvdOkgCAGw8hfdpRgmgGnkauKJjW2BKB7v9pqFSaHEFsn7tH3SlcV8a+JgUNXqpoUF0HhU7NWCKbcqJoXRG0AH68IhJoukOMDMlZH1FLkFHb0h6+o9BmvEWtRUyUiD77z9FJCDZKUiClPyknlTmyuWrJORPRUEE8SEwU1HpfxSB5xr5ke1kTDQM9RluGRNFbBJtyUtop/Z192+2+lcMtlcryfKhjCOG+lQg1Kf78IF1y2BcYetR3kZAt2Uy1bdNdQwZIgN7UGAoM9yVuXdWy4ybWIqzyinBbCyAuSIRoVT3l/gtQycc8wBlV5fhmJPx+gswv2j5km7li9JLFp5XWfn/2FO44Ewk3XYkuBp+jpfaJhpKBuE/VoFXmYEyM5M9ESSyltbNgi9PaOneeFD703WNOnqUxo6RVGnvJBdYmwumA+8xAC0YlG1a2oRAKKX8UhsHjxKmn16iXKpnuXfm32ZXf0SMHIzUpykCIhJQwbbKvYIKuKhC1DBeoenRXGIHP8tmZ56ZInChaU4lDws28s2RaX91WThTC14ERkiGILS3XvppVL/02VB2+UgmHKGpEht8BhgaSZJlVN1UsV4EQa88Xpu7q+4YRgoH4khArRW6i4C5t++7XbZCV2jSgF6MByIoVsJmlU0EYLgX5xtEFvKnStrlC6PkuWE4KVQogUeC1YEA1svnfpnYqSvJSG18gJag4yBzQjDyoxhmCV7WqPlxOCqQYFrbMzquikWLn0flVV/klTlaQoBels3DQpiBD6It3wWUCm0vHIhyPACTEcE7ffECnkU666M7h55dLHcF5pkaokBkUpRKRIUGIKDqqN2Vl64lclEeCE8Aj9rXddnUyR4mk8n34ukmIfDrZDaEyQ0MxBtUey8GQKI8AJURgb111MUjx779JtoAY/piTj7wVD4ZAiC9hSVHBA7XpOqzdCTgiPdWeS4rn7rtnZflTP7PhgfAdIzSGcZUoiJSo58eoxEv5MjhOiAnoxSfHo97+1e+cTx84DpXdjONIaBAEtA8n6lF8VQ4ATokLQEykWRKM4BXvuoV9fd+vcgSPwy8bmgGS0EdYmyhUSuS6S5YSooJo7o1F58apVujnH8o+tvzbWp9yKJsqoE93mPndVu4Jy1lPSnBAV1vbqJUuUxasW66RY1tF502CvckOwQaRF65xV7QqLWTfJc0L4QNWrl6xG+ycQo1pUXN7R+ZNkXL0qQJb7kkCr2mlTDx+IWvMicEL4RMVICPU7ENVWaYul5XO67lZi2mL8ykuTgiKRIr2q7RNxa1YMTggfqRa7SRra6qvR9QsC18/tXKOJ8HElqSaDYTHH1MNHItecKJwQ/lOpFl3YKd+55ZTgitldf5EE8QzsQh0KNUppUw//iVw7EnFC+FSXV5+6NUmk+Pqc9c+hecfcxKCyJ9wk4QKeYf/kU7GrXixOCB+rkEgRXfWR0IqOztdwNDEHP9F+DdcqaFVbNwr0sehVKxonhM9VF12yI6F3n+auezuhKB2D/crWxpYgtRTc1IOB7jghGIDqdpRm9+mmM545rEZC8wd65HVo6RFEwyeakuX2Ty4CzgnhIpgso9K7Tzj7dMNJf+5fMbdr0UBP8mEiBaZJK9qcFC6BzwnhEpBeREOzTzQlS2kt7+i6eLA3+RskBT2TQSA3CiRgyrw4IcoE0OvgRIpVpqnHnK5/6e9J/lw3CjQ+p+D2T2UqhBOiTAArEXwJmnqYpFjR0bUs1id/pyGCRoFk/6QN2eqmEgJWcZqcEFWqPCJFFHelpt3Zl3V0fXdwQF4aRPsntJPlRoFl6JQTogzwKh00ih8T3XILCGQUuGJO138m48rlaBAIuKN3AInCjQJLUBAnRAmg+SkIGQVG0SiQBtvLOzbciwaBFyqypqC1LDcKLEFRnBAlgOa7IGgUiINthUixbE7XnwQQFylJZQC3u+dGgUUqixOiSMB87D1tFLisY32XGBDn4tkP+7lRYHEa44QoDi/f+zZXta8/vfMFAYQONAp8y7B/4kaBTpTHCeEEpSrzYxoF4iepuxoCwpzBPvnlBt0okJPCTpWcEHYIVam7aRT41dM7/xEUY3NxrWJjpI0bBdqpkxPCDqEqdje7T0tnP9fTHOpbMNCdeCrSEuBGgRY65YSwAKcWnEyjQPrFadlzB3rl+5va0ChQA9XYcbwWculeHjgh3MPStzENMQq8dKA7eRd+fRfWbWS9OuXRt+jkCsYJkYtHzT7lGAV2dF0dG1C+G2nVDWf1f4AfqVWzuucZs0CAzDxM559unPfjn25c8At6NjdLM934L0egbhBAc480KX628cxJdZNxnlGOQCEEyEqW/gq58/ccgbpEILu1qEsAhmT6/wH2rxZzB25rEwAAAABJRU5ErkJggg==;" parent="9bAjtraM9IlFw_SEqSKU-15" vertex="1">
          <mxGeometry x="17.5" y="10.5" width="35" height="35" as="geometry" />
        </mxCell>
        <mxCell id="9bAjtraM9IlFw_SEqSKU-20" value="" style="endArrow=classic;startArrow=classic;html=1;rounded=0;exitX=0.502;exitY=-0.002;exitDx=0;exitDy=0;exitPerimeter=0;entryX=0.5;entryY=1.002;entryDx=0;entryDy=0;entryPerimeter=0;flowAnimation=1;strokeColor=#1971c2;flowAnimationDirection=alternate;movable=1;resizable=1;rotatable=1;deletable=1;editable=1;locked=0;connectable=1;" parent="1" source="9bAjtraM9IlFw_SEqSKU-16" target="w5ZOCgXdWMlHR6tc9iUt-599" edge="1">
          <mxGeometry width="50" height="50" relative="1" as="geometry">
            <mxPoint x="371.75" y="1461" as="sourcePoint" />
            <mxPoint x="372.75" y="1424" as="targetPoint" />
            <Array as="points" />
          </mxGeometry>
        </mxCell>
        <mxCell id="9bAjtraM9IlFw_SEqSKU-21" value="" style="endArrow=classic;html=1;rounded=0;exitX=0.999;exitY=0.5;exitDx=0;exitDy=0;exitPerimeter=0;entryX=0.002;entryY=0.498;entryDx=0;entryDy=0;entryPerimeter=0;edgeStyle=elbowEdgeStyle;strokeColor=#1971c2;flowAnimation=1;" parent="1" source="w5ZOCgXdWMlHR6tc9iUt-661" target="w5ZOCgXdWMlHR6tc9iUt-665" edge="1">
          <mxGeometry width="50" height="50" relative="1" as="geometry">
            <mxPoint x="840" y="1038" as="sourcePoint" />
            <mxPoint x="944" y="1100" as="targetPoint" />
            <Array as="points">
              <mxPoint x="881" y="1126" />
            </Array>
          </mxGeometry>
        </mxCell>
        <mxCell id="9bAjtraM9IlFw_SEqSKU-22" value="" style="endArrow=classic;html=1;rounded=0;exitX=0.999;exitY=0.5;exitDx=0;exitDy=0;exitPerimeter=0;edgeStyle=elbowEdgeStyle;strokeColor=#1971c2;flowAnimation=1;" parent="1" edge="1">
          <mxGeometry width="50" height="50" relative="1" as="geometry">
            <mxPoint x="855.17" y="1611" as="sourcePoint" />
            <mxPoint x="933" y="1538" as="targetPoint" />
            <Array as="points">
              <mxPoint x="881.17" y="1574" />
            </Array>
          </mxGeometry>
        </mxCell>
        <mxCell id="Angof_oCghfm19gzO2ol-1" value="" style="group;flipV=0;" vertex="1" connectable="0" parent="1">
          <mxGeometry x="371.74999999999994" y="1400" width="70" height="80.5" as="geometry" />
        </mxCell>
        <mxCell id="Angof_oCghfm19gzO2ol-2" value="" style="rounded=1;whiteSpace=wrap;html=1;strokeColor=#1971c2;arcSize=7;" vertex="1" parent="Angof_oCghfm19gzO2ol-1">
          <mxGeometry width="70" height="80.5" as="geometry" />
        </mxCell>
        <mxCell id="Angof_oCghfm19gzO2ol-3" value="&lt;div&gt;&lt;font face=&quot;Roboto&quot; data-font-src=&quot;https://fonts.googleapis.com/css?family=Roboto&quot;&gt;&lt;b&gt;VUI-API&lt;/b&gt;&lt;/font&gt;&lt;/div&gt;" style="text;html=1;align=center;verticalAlign=middle;whiteSpace=wrap;rounded=0;" vertex="1" parent="Angof_oCghfm19gzO2ol-1">
          <mxGeometry x="5" y="45.5" width="60" height="30" as="geometry" />
        </mxCell>
        <mxCell id="Angof_oCghfm19gzO2ol-4" value="" style="aspect=fixed;sketch=0;html=1;dashed=0;whitespace=wrap;verticalLabelPosition=middle;verticalAlign=middle;fillColor=#1971c2;strokeColor=#ffffff;points=[[0.005,0.63,0],[0.1,0.2,0],[0.9,0.2,0],[0.5,0,0],[0.995,0.63,0],[0.72,0.99,0],[0.5,1,0],[0.28,0.99,0]];shape=mxgraph.kubernetes.icon2;prIcon=api;spacingLeft=26;labelPosition=right;align=left;" vertex="1" parent="Angof_oCghfm19gzO2ol-1">
          <mxGeometry x="17.5" y="11.740000000000009" width="35" height="32.76" as="geometry" />
        </mxCell>
        <mxCell id="Angof_oCghfm19gzO2ol-9" value="" style="group;imageHeight=24;arcSize=7;flipV=0;" vertex="1" connectable="0" parent="1">
          <mxGeometry x="185.99999999999994" y="1400" width="120" height="80.5" as="geometry" />
        </mxCell>
        <mxCell id="Angof_oCghfm19gzO2ol-10" value="" style="rounded=1;whiteSpace=wrap;html=1;strokeColor=#1971c2;" vertex="1" parent="Angof_oCghfm19gzO2ol-9">
          <mxGeometry width="120" height="80.5" as="geometry" />
        </mxCell>
        <mxCell id="Angof_oCghfm19gzO2ol-11" value="&lt;div&gt;&lt;font data-font-src=&quot;https://fonts.googleapis.com/css?family=Roboto&quot; face=&quot;Roboto&quot;&gt;&lt;b&gt;VUI-WATCHDOG&lt;/b&gt;&lt;/font&gt;&lt;/div&gt;" style="text;html=1;align=center;verticalAlign=middle;whiteSpace=wrap;rounded=0;" vertex="1" parent="Angof_oCghfm19gzO2ol-9">
          <mxGeometry x="8.57142857142857" y="42.5" width="102.85714285714288" height="30" as="geometry" />
        </mxCell>
        <mxCell id="Angof_oCghfm19gzO2ol-12" value="" style="editableCssRules=.*;html=1;fontColor=#999999;shape=image;verticalLabelPosition=middle;verticalAlign=middle;labelPosition=right;align=left;spacingLeft=20;part=1;points=[];imageAspect=0;image=data:image/svg+xml,PHN2ZyB4bWxucz0iaHR0cDovL3d3dy53My5vcmcvMjAwMC9zdmciIHhtbG5zOnY9Imh0dHBzOi8vdmVjdGEuaW8vbmFubyIgd2lkdGg9IjE4LjMxOTk5OTY5NDgyNDIyIiBoZWlnaHQ9IjIwLjAwMDAwMTkwNzM0ODYzMyIgdmlld0JveD0iMCAwIDE4LjMxOTk5OTY5NDgyNDIyIDIwLjAwMDAwMTkwNzM0ODYzMyI+JiN4YTsJPHN0eWxlIHR5cGU9InRleHQvY3NzIj4uc3QwIHsgZmlsbDogcmdiKDEwMiwgMTU3LCAyNDYpOyB9IC5zdDEgeyBmaWxsOiByZ2IoNTAsIDEwOCwgMjI5KTsgfSAuc3QyIHsgZmlsbDogcmdiKDE3NCwgMjAzLCAyNTApOyB9IDwvc3R5bGU+JiN4YTsJPGRlZnM+JiN4YTsJCTxmaWx0ZXIgaWQ9IkEiIHg9IjQuNjQiIHk9IjQuMTkiIHdpZHRoPSIxNC43MyIgaGVpZ2h0PSIxMi43NiIgZmlsdGVyVW5pdHM9InVzZXJTcGFjZU9uVXNlIiBjb2xvci1pbnRlcnBvbGF0aW9uLWZpbHRlcnM9InNSR0IiPiYjeGE7CQkJPGZlRmxvb2QgZmxvb2QtY29sb3I9IiNmZmYiLz4mI3hhOwkJCTxmZUJsZW5kIGluPSJTb3VyY2VHcmFwaGljIi8+JiN4YTsJCTwvZmlsdGVyPiYjeGE7CQk8bWFzayBpZD0iQiIgeD0iNC42NCIgeT0iNC4xOSIgd2lkdGg9IjE0LjczIiBoZWlnaHQ9IjEyLjc2IiBtYXNrVW5pdHM9InVzZXJTcGFjZU9uVXNlIj4mI3hhOwkJCTxjaXJjbGUgY3g9IjEyIiBjeT0iMTIuMjMiIHI9IjMuNTgiIGZpbHRlcj0idXJsKCNBKSIvPiYjeGE7CQk8L21hc2s+JiN4YTsJPC9kZWZzPiYjeGE7CTxnIGNsYXNzPSJzdDAiPiYjeGE7CQk8Y2lyY2xlIGN4PSIxNi4xMyIgY3k9IjYuMjEiIHI9IjEuNzIiLz4mI3hhOwkJPGNpcmNsZSBjeD0iMi4xOSIgY3k9IjYuMjEiIHI9IjEuNzIiLz4mI3hhOwkJPGNpcmNsZSBjeD0iOS4xNiIgY3k9IjE4LjI4IiByPSIxLjcyIi8+JiN4YTsJPC9nPiYjeGE7CTxnIG1hc2s9InVybCgjQikiIHRyYW5zZm9ybT0idHJhbnNsYXRlKC0yLjg0IC0yKSI+JiN4YTsJCTxwYXRoIHRyYW5zZm9ybT0ibWF0cml4KC41IC0uODcgLjg3IC41IC00LjU5IDIwLjUzKSIgZD0iTTE0LjY5IDEwLjIyaDEuNTl2OC4wNGgtMS41OXoiIGNsYXNzPSJzdDEiLz4mI3hhOwkJPHBhdGggdHJhbnNmb3JtPSJyb3RhdGUoMzMwIDguNTIzIDE0LjI0NCkiIGQ9Ik00LjQ5IDEzLjQ1aDguMDR2MS41OUg0LjQ5eiIgY2xhc3M9InN0MSIvPiYjeGE7CQk8cGF0aCBkPSJNMTEuMiA0LjE5aDEuNTl2OC4wNEgxMS4yeiIgY2xhc3M9InN0MSIvPiYjeGE7CTwvZz4mI3hhOwk8ZyBjbGFzcz0ic3QyIj4mI3hhOwkJPGNpcmNsZSBjeD0iOS4xNiIgY3k9IjEwLjIzIiByPSIyLjc4Ii8+JiN4YTsJCTxjaXJjbGUgY3g9IjIuMTkiIGN5PSIxNC4yNSIgcj0iMi4xOSIvPiYjeGE7CQk8Y2lyY2xlIGN4PSIxNi4xMyIgY3k9IjE0LjI1IiByPSIyLjE5Ii8+JiN4YTsJCTxjaXJjbGUgY3g9IjkuMTYiIGN5PSIyLjE5IiByPSIyLjE5Ii8+JiN4YTsJPC9nPiYjeGE7PC9zdmc+;" vertex="1" parent="Angof_oCghfm19gzO2ol-9">
          <mxGeometry x="46.5" y="12.5" width="27" height="30" as="geometry" />
        </mxCell>
        <mxCell id="Angof_oCghfm19gzO2ol-13" value="" style="endArrow=classic;startArrow=classic;html=1;rounded=0;entryX=-0.002;entryY=0.501;entryDx=0;entryDy=0;entryPerimeter=0;strokeColor=#1971c2;flowAnimation=1;exitX=0.996;exitY=0.504;exitDx=0;exitDy=0;exitPerimeter=0;flowAnimationDirection=alternate;" edge="1" parent="1" source="Angof_oCghfm19gzO2ol-10" target="Angof_oCghfm19gzO2ol-2">
          <mxGeometry width="50" height="50" relative="1" as="geometry">
            <mxPoint x="819" y="1174" as="sourcePoint" />
            <mxPoint x="819" y="1229" as="targetPoint" />
          </mxGeometry>
        </mxCell>
        <mxCell id="Angof_oCghfm19gzO2ol-14" value="" style="endArrow=classic;startArrow=classic;html=1;rounded=0;entryX=0.497;entryY=0.999;entryDx=0;entryDy=0;entryPerimeter=0;strokeColor=#1971c2;flowAnimation=1;exitX=0.499;exitY=0.004;exitDx=0;exitDy=0;exitPerimeter=0;flowAnimationDirection=alternate;" edge="1" parent="1" source="Angof_oCghfm19gzO2ol-2" target="9bAjtraM9IlFw_SEqSKU-16">
          <mxGeometry width="50" height="50" relative="1" as="geometry">
            <mxPoint x="539" y="1278.5" as="sourcePoint" />
            <mxPoint x="539" y="1333.5" as="targetPoint" />
            <Array as="points">
              <mxPoint x="407" y="1383" />
              <mxPoint x="337" y="1382" />
            </Array>
          </mxGeometry>
        </mxCell>
        <mxCell id="Angof_oCghfm19gzO2ol-18" value="" style="group;arcSize=7;flipV=0;" vertex="1" connectable="0" parent="1">
          <mxGeometry x="301.75" y="1557" width="70" height="80.5" as="geometry" />
        </mxCell>
        <mxCell id="Angof_oCghfm19gzO2ol-19" value="" style="rounded=1;whiteSpace=wrap;html=1;strokeColor=#1971c2;" vertex="1" parent="Angof_oCghfm19gzO2ol-18">
          <mxGeometry width="70" height="80.5" as="geometry" />
        </mxCell>
        <mxCell id="Angof_oCghfm19gzO2ol-20" value="&lt;font data-font-src=&quot;https://fonts.googleapis.com/css?family=Roboto&quot; face=&quot;Roboto&quot;&gt;&lt;b&gt;VELERO&lt;/b&gt;&lt;/font&gt;" style="text;html=1;align=center;verticalAlign=middle;whiteSpace=wrap;rounded=0;" vertex="1" parent="Angof_oCghfm19gzO2ol-18">
          <mxGeometry x="5" y="45.5" width="60" height="30" as="geometry" />
        </mxCell>
        <mxCell id="Angof_oCghfm19gzO2ol-21" value="" style="shape=image;verticalLabelPosition=bottom;labelBackgroundColor=default;verticalAlign=top;aspect=fixed;imageAspect=0;image=data:image/png,iVBORw0KGgoAAAANSUhEUgAAACoAAAAwCAIAAADo7H/xAAAAA3NCSVQICAjb4U/gAAAFUElEQVRYR+1Xe2xTZRRfu+52rz7X7uXmGGzMPdgYSDZAQEY0m+hQNIaIMUPNFqIohsxoVHA+iZkvjMQwWJSIGqfBCRniFJwQYEwGo4ONQdn70ff7sdvb1rPd5fZre3fbbkv2z26a5n7f75zzO9853znfd1lutzts/h72/FFPMC/Qz2P85zn4nNks3ekOU1qdYxYiPjr8ntiZmApZR2d3NcrNf/RZFVbniJkAD8iHh7GzRBGLBRH5Uu62rNggV8UKvu5vafFGuQV+QMxsPU+CbcviBeNEsPTfXDfU/qdnZvVBwYmqZYKy9GgGraDod/6tau63MlhhgL7aKGXwIDD92p+GAkabgR4gBg8CFF7FacUsuYF+11nVqV764DHRg875YTvzyoJE97fpBoyEv/C09Hf0jppLWn+Fmc0Mm4mXzqj8daete1ZYmNo2VWDLJNjx8iRUOaO+nxreeT4tGKip13Ksy7Q9m4cK02+9bi1uJ9zL47mUKMr3aqFwV6EgVAjk1yRHHi1NCEz/9TXD5+2hVTlqlOG9doPk8SUxlAB97iFQDCZmA5lxF6pOk/seHf7RA3GHO41otaAJPthh+OyKJza/lSdBgyONMkAn5JbXWtQyNR4g+CfvWnb/oz5WltClxetkpgIpdnCTdNBEbGwYJjVJV178U/lEZuzm9OghM/Hgz15QfaeRxWLtyOWhUOszKXf1jr0XtKe2JlMe0Gy9ozdN702WXCqPU5wUyQ1nfd9l8gl4rgSDXnZFYa/+V+MDwaH3TrEIJnecVvpA0RzWUhH28bq4TGEECdHQH7iqP3DV4KM5h0M0jzS5fzKTB+v2WdbLywXPZvOEXPYtnWNL4yjqzfqUqJrVYlCB47+yWdWt82R3VSL3k3USEqo+p2kd9euhcN77PCfl5h+6TWbc+eEl7ZIjffAbNRMg83qLuqRhqGXQCu9QGihUJzPA8LDMgEJtY3YYopDSSpT+OozS0QS/30hs+mUY1rSvWJzGnwhPj87xyPERdMVUABkgkEebFQyhWZUtilkqmko8zNDQw+zW30eve1fIXOW++n5hVb6nY9K3naezvDozyf3GKlHDo4nlSM+ifIKdAeW0s8BjF4WgMexeIYSZmAh2Sar35cc385NjjY0YMDrI7MI/ZBom5Xr8x24TvCgsxFMnRkm0vnMi3yor8WW7Xmd34k4XtWPgBaDbOvz9i9pzQ1at3bn/8sQM+tAHHzz9a8C2Njly3OkmXG5JVPib5zUNPWZyTYceii9JjaLWt++iFo4ycvh2kagil09B394wftCqI4fvrhZni7GVCZ5jDOanpb+hwX0KjDI6s5cNKVFHHo730aXPPQjlxmGV+Z51wAx0wC0ZMVDE/vQrErgVOfycuKnOjwqAHYBgZm+x2F9x2tWTopXNyjODts3pMTVrxHyMDbmI4rA6VPgrZ1VwgQEZEhJgbJPDBQK39Q44C0gIvPl0gyRDEAEQbIs0vqfeKD8C0GvtLrPDdS+PA18Xe1rUoAbJq10vkUaHw90NXEnhcS6P2bc3KQACvreKRAVSLrQpOHJAq00xAe1ZKaQtClAJQA8ShnEXnALf3fQ6dcDifWJMY3PKDY46mRGNalU+P0eMEe4w+Co6JDNCzJ/LoSljUiUwPSnX1GuF0gIylIn5HS4BL+TxH1vsudv4ywdLD5pw4f+iXU+Vn78tambuv/Eo03K9o0M9fk2JXxix9Xlf3YsSIwsTuHlxWOkipu861O8QVu+/XDhhByf3PzyF8VyMDbfz0J5Z0YdGRSc9bduhE577uQX6uY9p0BYXgh90qOZecJ6D/z8Hltw4oe9yRgAAAABJRU5ErkJggg==;" vertex="1" parent="Angof_oCghfm19gzO2ol-18">
          <mxGeometry x="17.93" y="11" width="34.13" height="39" as="geometry" />
        </mxCell>
        <mxCell id="Angof_oCghfm19gzO2ol-24" value="" style="edgeStyle=elbowEdgeStyle;elbow=vertical;endArrow=classic;html=1;curved=0;rounded=0;endSize=8;startSize=8;strokeColor=#1971C2;flowAnimation=1;exitX=0.501;exitY=1.007;exitDx=0;exitDy=0;exitPerimeter=0;entryX=0.499;entryY=0.001;entryDx=0;entryDy=0;entryPerimeter=0;" edge="1" parent="1" source="Angof_oCghfm19gzO2ol-2" target="Angof_oCghfm19gzO2ol-19">
          <mxGeometry width="50" height="50" relative="1" as="geometry">
            <mxPoint x="377" y="1203" as="sourcePoint" />
            <mxPoint x="336" y="1157" as="targetPoint" />
            <Array as="points">
              <mxPoint x="373" y="1493" />
            </Array>
          </mxGeometry>
        </mxCell>
        <mxCell id="Angof_oCghfm19gzO2ol-25" value="" style="edgeStyle=elbowEdgeStyle;elbow=vertical;endArrow=classic;html=1;curved=0;rounded=0;endSize=8;startSize=8;strokeColor=#1971C2;flowAnimation=1;exitX=0.498;exitY=1.003;exitDx=0;exitDy=0;exitPerimeter=0;entryX=0.5;entryY=0.001;entryDx=0;entryDy=0;entryPerimeter=0;" edge="1" parent="1" source="Angof_oCghfm19gzO2ol-10" target="Angof_oCghfm19gzO2ol-19">
          <mxGeometry width="50" height="50" relative="1" as="geometry">
            <mxPoint x="253" y="1210" as="sourcePoint" />
            <mxPoint x="191" y="1148" as="targetPoint" />
            <Array as="points">
              <mxPoint x="292" y="1493" />
            </Array>
          </mxGeometry>
        </mxCell>
        <mxCell id="9bAjtraM9IlFw_SEqSKU-13" value="&lt;font style=&quot;font-size: 8px;&quot; data-font-src=&quot;https://fonts.googleapis.com/css?family=Roboto&quot; face=&quot;Roboto&quot;&gt;https://&amp;lt;your-deploy&amp;gt;&lt;/font&gt;" style="text;html=1;align=center;verticalAlign=middle;whiteSpace=wrap;rounded=0;" parent="1" vertex="1">
          <mxGeometry x="182" y="1083.5" width="96" height="18" as="geometry" />
        </mxCell>
        <mxCell id="Angof_oCghfm19gzO2ol-26" value="" style="endArrow=classic;html=1;rounded=0;exitX=1;exitY=0.503;exitDx=0;exitDy=0;exitPerimeter=0;entryX=0.003;entryY=0.495;entryDx=0;entryDy=0;entryPerimeter=0;edgeStyle=elbowEdgeStyle;strokeColor=#1971c2;flowAnimation=1;" edge="1" parent="1" source="9bAjtraM9IlFw_SEqSKU-9" target="w5ZOCgXdWMlHR6tc9iUt-599">
          <mxGeometry width="50" height="50" relative="1" as="geometry">
            <mxPoint x="55" y="1237" as="sourcePoint" />
            <mxPoint x="134" y="1164" as="targetPoint" />
            <Array as="points">
              <mxPoint x="87" y="1188" />
            </Array>
          </mxGeometry>
        </mxCell>
        <mxCell id="Angof_oCghfm19gzO2ol-27" value="" style="endArrow=classic;html=1;rounded=0;exitX=0.996;exitY=0.498;exitDx=0;exitDy=0;exitPerimeter=0;entryX=-0.001;entryY=0.497;entryDx=0;entryDy=0;entryPerimeter=0;edgeStyle=elbowEdgeStyle;strokeColor=#1971c2;flowAnimation=1;" edge="1" parent="1" source="9bAjtraM9IlFw_SEqSKU-9" target="w5ZOCgXdWMlHR6tc9iUt-595">
          <mxGeometry width="50" height="50" relative="1" as="geometry">
            <mxPoint x="44" y="1138.33" as="sourcePoint" />
            <mxPoint x="298" y="1181.33" as="targetPoint" />
            <Array as="points">
              <mxPoint x="87" y="1163.33" />
            </Array>
          </mxGeometry>
        </mxCell>
      </root>
    </mxGraphModel>
  </diagram>
</mxfile>
